<svg xmlns="http://www.w3.org/2000/svg" width="600" height="600" viewBox="0 0 600 600" version="1.1"><path d="M 69 164.500 C 69 220.751, 69.042 222, 70.941 222 C 72.009 222, 73.191 221.500, 73.569 220.888 C 73.947 220.277, 76.744 218.677, 79.784 217.332 C 84.203 215.378, 85.497 215.149, 86.232 216.194 C 86.962 217.229, 87.072 217.204, 86.766 216.069 C 86.281 214.272, 93.881 207, 96.245 207 C 97.210 207, 98.019 206.662, 98.043 206.250 C 98.066 205.838, 101.045 203.475, 104.663 201 C 108.281 198.525, 113.550 194.365, 116.371 191.755 C 119.192 189.146, 122.737 186.449, 124.250 185.761 C 125.763 185.074, 127 184.172, 127 183.756 C 127 183.340, 127.675 183, 128.500 183 C 129.325 183, 130 182.578, 130 182.063 C 130 181.548, 131.659 179.561, 133.686 177.649 C 136.245 175.234, 138.696 173.973, 141.705 173.522 C 144.706 173.072, 146.516 172.142, 147.592 170.499 C 148.448 169.194, 150.576 167.824, 152.324 167.454 C 154.071 167.084, 157.188 165.048, 159.250 162.929 C 163.245 158.826, 167.443 157.238, 175.308 156.855 C 177.953 156.726, 180.330 156.275, 180.590 155.854 C 180.851 155.432, 181.730 155.343, 182.545 155.656 C 183.359 155.968, 184.582 155.792, 185.263 155.264 C 187.737 153.346, 197.632 150.671, 203 150.470 C 213.176 150.088, 225.821 151.837, 229.916 154.194 C 235.230 157.252, 239 163.507, 239 169.266 C 239 173.206, 238.560 174.175, 235.750 176.426 C 233.962 177.858, 231.956 179.473, 231.292 180.015 C 230.628 180.557, 228.078 181, 225.626 181 C 223.173 181, 220.996 181.513, 220.786 182.141 C 220.301 183.596, 203.963 184.203, 202.298 182.828 C 201.637 182.281, 200.212 182.115, 199.132 182.458 C 198.052 182.801, 196.879 182.613, 196.525 182.041 C 195.667 180.653, 189.300 180.705, 188.434 182.107 C 187.943 182.901, 187.543 182.878, 187.014 182.023 C 185.851 180.140, 166.082 180.312, 162.984 182.232 C 161.313 183.268, 160.784 183.252, 160.094 182.143 C 159.533 181.242, 159.030 181.143, 158.593 181.850 C 158.232 182.434, 157.347 182.687, 156.628 182.411 C 155.909 182.135, 154.743 182.604, 154.038 183.454 C 153.332 184.305, 152.182 185, 151.481 185 C 150.014 185, 127.067 196.533, 125.585 198.015 C 125.043 198.557, 123.862 199, 122.961 199 C 122.059 199, 120.805 200.133, 120.174 201.517 C 119.196 203.665, 118.554 203.950, 115.794 203.464 C 114.016 203.150, 112.857 203.190, 113.219 203.552 C 114.071 204.405, 109.124 209, 107.354 209 C 106.609 209, 106 209.450, 106 210 C 106 210.550, 105.373 211, 104.607 211 C 103.841 211, 102.980 211.611, 102.693 212.358 C 102.406 213.105, 100.790 213.992, 99.100 214.330 C 97.410 214.668, 95.234 215.912, 94.264 217.095 C 90.723 221.412, 88.511 223.055, 84.948 224.014 C 82.948 224.553, 78.541 226.638, 75.155 228.647 L 69 232.300 69 306.149 L 69 379.997 234.430 379.994 C 325.417 379.992, 400.564 379.721, 401.425 379.391 C 402.285 379.060, 402.740 378.388, 402.435 377.895 C 402.131 377.403, 402.921 377.007, 404.191 377.015 C 405.828 377.026, 406.114 377.276, 405.173 377.872 C 402.387 379.638, 412.930 379.978, 470.750 379.989 L 530 380 530 243.500 L 530 107 496.622 107 C 469.414 107, 463.033 107.256, 462.096 108.384 C 460.522 110.281, 457.986 125.176, 457.990 132.500 C 457.996 141.644, 458.720 151.737, 459.455 152.927 C 459.817 153.513, 460.270 154.806, 460.462 155.801 C 461.287 160.086, 466.570 169.909, 468.818 171.338 C 472.295 173.548, 486 187.789, 486 189.192 C 486 190.069, 486.687 191.050, 487.526 191.372 C 489.016 191.943, 492.788 199.509, 493.573 203.500 C 493.789 204.600, 494.226 206.700, 494.544 208.166 C 494.960 210.086, 494.615 211.157, 493.311 211.992 C 491.596 213.090, 491.600 213.119, 493.395 212.551 C 495.168 211.990, 495.242 212.356, 494.551 218.226 C 494.145 221.677, 493.664 226.243, 493.483 228.373 C 493.302 230.503, 492.669 232.731, 492.077 233.323 C 491.485 233.915, 491 235.660, 491 237.200 C 491 238.740, 490.044 240.956, 488.875 242.125 C 487.706 243.294, 486.750 245.428, 486.750 246.868 C 486.750 248.309, 485.939 250.055, 484.948 250.749 C 483.957 251.443, 481.876 254.523, 480.323 257.594 C 478.770 260.665, 476.262 263.910, 474.750 264.805 C 473.238 265.699, 472 267.177, 472 268.088 C 472 269.705, 465.507 276, 463.839 276 C 463.377 276, 463 276.686, 463 277.525 C 463 278.363, 461.988 279.494, 460.750 280.037 C 459.512 280.580, 456.962 281.952, 455.083 283.085 C 453.204 284.219, 450.841 284.930, 449.833 284.667 C 448.825 284.403, 448 284.620, 448 285.150 C 448 285.679, 445.863 287.024, 443.250 288.138 C 440.637 289.252, 437.086 290.800, 435.358 291.578 C 433.300 292.504, 430.540 292.792, 427.358 292.413 C 423.553 291.960, 422.825 292.087, 424 292.997 C 425.156 293.892, 423.664 293.999, 417.500 293.466 C 413.100 293.086, 408.150 292.697, 406.500 292.603 C 400.280 292.247, 387 281.589, 387 276.953 C 387 275.864, 386.438 274.065, 385.750 272.956 C 384.762 271.361, 384.758 270.778, 385.732 270.172 C 386.409 269.750, 386.772 268.414, 386.539 267.202 C 386.306 265.991, 386.484 265, 386.936 265 C 387.388 265, 388.325 263.630, 389.019 261.955 C 389.729 260.240, 391.639 258.283, 393.390 257.475 C 395.100 256.686, 397.175 255.629, 398 255.125 C 402.227 252.547, 409.708 252.376, 418.961 254.646 C 424.014 255.886, 430.135 257.198, 432.564 257.562 C 434.992 257.926, 436.790 258.531, 436.557 258.907 C 436.033 259.756, 444.490 258.584, 452.545 256.692 C 458.078 255.393, 462.738 253.437, 464 251.885 C 464.275 251.546, 465.456 250.972, 466.624 250.607 C 467.792 250.243, 471.290 247.145, 474.398 243.723 C 477.506 240.300, 480.886 236.600, 481.909 235.500 C 482.933 234.400, 484.321 231.475, 484.995 229 C 485.669 226.525, 486.666 223.545, 487.211 222.378 C 488.754 219.072, 488.948 207.830, 487.511 205 C 486.812 203.625, 485.910 200.925, 485.505 199 C 484.776 195.528, 480.915 190.129, 474.063 183 C 465.983 174.593, 462.225 168.812, 458.460 159 C 455.251 150.638, 454.702 146.172, 454.644 127.936 C 454.609 116.922, 454.873 114.857, 456.786 111.186 L 458.968 107 263.984 107 L 69 107 69 164.500 M 295 183.878 C 295 184.360, 295.675 185.315, 296.500 186 C 298.128 187.351, 298.332 187.028, 297.393 184.582 C 296.750 182.907, 295 182.392, 295 183.878 M 280.052 187.869 C 280.023 189.172, 278.401 192.871, 276.446 196.088 C 273.325 201.226, 272.841 202.921, 272.470 210.013 C 272.223 214.751, 272.426 217.855, 272.963 217.523 C 273.466 217.212, 274.301 217.715, 274.818 218.640 C 275.537 219.924, 275.773 219.393, 275.814 216.400 C 275.873 212.115, 277.689 206.355, 278.671 207.338 C 279.009 207.676, 279.382 210.551, 279.499 213.726 C 279.919 225.086, 279.848 224.785, 281.576 222.500 C 282.427 221.376, 282.845 219.527, 282.532 218.277 C 282.116 216.615, 282.341 216.194, 283.424 216.609 C 284.222 216.915, 284.629 217.803, 284.330 218.583 C 284.031 219.362, 284.343 220, 285.025 220 C 285.893 220, 286.103 218.803, 285.727 216 C 285.317 212.941, 285.528 212, 286.627 212 C 288.155 212, 289.136 213.813, 289.513 217.338 C 289.953 221.443, 290.286 221.486, 290.892 217.515 L 291.500 213.530 293.824 216.015 C 295.102 217.382, 296.061 218.050, 295.955 217.500 C 295.467 214.959, 296.090 213.821, 297.642 214.416 C 299.069 214.964, 299.208 214.420, 298.706 210.273 C 298.388 207.648, 297.126 203.107, 295.902 200.182 C 294.022 195.690, 293.348 194.947, 291.557 195.396 C 290.119 195.757, 289.030 195.278, 288.176 193.910 C 287.352 192.591, 286.279 192.094, 285.077 192.476 C 283.654 192.927, 282.883 192.204, 281.670 189.280 C 280.391 186.193, 280.094 185.935, 280.052 187.869 M 258.128 192.565 C 256.972 194.033, 256.296 195.670, 256.624 196.201 C 256.952 196.732, 258.095 195.728, 259.164 193.970 C 261.610 189.948, 260.921 189.014, 258.128 192.565 M 306.514 192.978 C 306.211 193.468, 304.463 193.625, 302.630 193.327 C 298.164 192.603, 297.761 194.121, 300.490 201.396 C 301.979 205.366, 302.967 206.863, 303.512 205.980 C 304.132 204.977, 304.816 205.246, 306.412 207.116 C 307.560 208.463, 309.362 210.225, 310.416 211.032 C 312.228 212.421, 312.292 212.338, 311.589 209.500 C 311.180 207.850, 310.269 205.150, 309.563 203.500 C 305.665 194.380, 305.558 194, 306.883 194 C 307.369 194, 308.002 194.900, 308.290 196 C 308.577 197.100, 309.417 197.964, 310.156 197.921 C 311.018 197.870, 311.090 197.674, 310.356 197.373 C 309.727 197.115, 309.426 196.088, 309.687 195.090 C 310.185 193.186, 307.493 191.394, 306.514 192.978 M 269.176 195.750 C 266.269 203.248, 264.799 209.036, 264.453 214.343 C 264.127 219.336, 264.281 220.012, 265.509 218.992 C 266.300 218.336, 267.207 216.157, 267.525 214.150 C 267.842 212.142, 268.773 207.632, 269.594 204.126 C 270.414 200.620, 270.857 197.523, 270.578 197.244 C 270.299 196.965, 270.520 195.896, 271.070 194.869 C 271.641 193.803, 271.678 193, 271.157 193 C 270.654 193, 269.763 194.238, 269.176 195.750 M 312 193.815 C 312 194.229, 313.494 196.886, 315.319 199.719 C 317.144 202.552, 319.471 206.718, 320.489 208.977 C 321.610 211.461, 322.848 212.889, 323.624 212.591 C 324.403 212.292, 325.396 213.454, 326.154 215.549 C 326.840 217.447, 327.810 219, 328.308 219 C 328.806 219, 328.889 218.213, 328.492 217.250 C 328.095 216.287, 327.432 214.095, 327.019 212.378 C 325.669 206.761, 321.774 199.942, 320.514 200.988 C 319.717 201.650, 318.620 200.737, 316.933 198.009 C 314.670 194.352, 312 192.081, 312 193.815 M 261.843 200.219 C 258.444 205.651, 256.644 211.044, 257.833 212.233 C 258.563 212.963, 259.323 213.044, 259.861 212.450 C 260.781 211.435, 264.098 198.765, 263.580 198.246 C 263.410 198.077, 262.629 198.964, 261.843 200.219 M 251.272 202.746 C 248.384 205.444, 244 212.807, 244 214.960 C 244 216.928, 245.681 215.995, 246.881 213.361 C 247.543 211.909, 249.129 209.900, 250.407 208.895 C 252.752 207.050, 255.691 201.357, 254.772 200.439 C 254.498 200.165, 252.924 201.203, 251.272 202.746 M 328.224 202.744 C 327.493 204.873, 327.728 206.398, 329.259 209.445 L 331.240 213.390 332.641 210.715 C 333.846 208.417, 333.843 207.560, 332.624 204.642 C 330.698 200.034, 329.354 199.454, 328.224 202.744 M 303.801 250.124 C 304.975 251.171, 313 251.869, 313 250.924 C 313 250.437, 311.988 249.815, 310.750 249.543 C 307.837 248.903, 302.895 249.315, 303.801 250.124 M 287.637 253.143 C 286.613 253.739, 284.909 255.091, 283.851 256.149 C 281.677 258.323, 280 257.812, 280 254.977 C 280 253.264, 279.220 253.075, 272.282 253.112 C 268.036 253.134, 264.202 253.375, 263.760 253.648 C 263.319 253.921, 264.767 256.200, 266.979 258.713 C 269.744 261.855, 271 264.208, 271 266.249 C 271 268.951, 270.765 269.158, 268.382 268.560 C 266.605 268.114, 265.174 268.438, 263.923 269.570 C 262.910 270.486, 260.048 271.466, 257.562 271.746 C 253.312 272.225, 253.003 272.466, 252.378 275.797 C 251.401 281.005, 252.707 299.716, 254.456 305.571 C 255.565 309.283, 257.295 311.895, 260.913 315.321 C 263.632 317.894, 266.174 320, 266.562 320 C 267.304 320, 266.499 308.312, 265.459 303.975 C 264.927 301.761, 265.355 301.228, 268.929 299.652 C 272.068 298.267, 274.969 297.928, 281.549 298.177 C 291.851 298.567, 291.442 299.272, 290.810 282.198 C 290.389 270.800, 289.532 267.389, 286.270 264.127 C 284.366 262.223, 285.431 258.076, 288.538 255.298 C 292.123 252.091, 291.600 250.840, 287.637 253.143 M 317.193 256.750 C 316.498 257.988, 315.209 259, 314.329 259 C 313 259, 312.836 259.788, 313.364 263.640 C 313.714 266.191, 314 269.666, 314 271.362 C 314 274.411, 314.017 274.421, 315.526 272.267 C 317.246 269.811, 319.297 260.021, 318.790 256.690 L 318.456 254.500 317.193 256.750 M 301.951 260.559 C 300.991 261.716, 299.670 261.951, 296.829 261.471 C 294.340 261.051, 293 261.205, 293 261.912 C 293 263.930, 301.518 263.190, 303.500 261 C 304.495 259.900, 304.845 259, 304.277 259 C 303.710 259, 302.663 259.702, 301.951 260.559 M 249.704 266.774 C 251.633 268.187, 258.831 268.070, 258 266.639 C 257.725 266.166, 255.342 265.707, 252.704 265.619 C 248.515 265.479, 248.135 265.626, 249.704 266.774 M 300.500 266.964 L 295.500 268.678 295.478 274.589 C 295.466 277.840, 295.741 285.675, 296.090 292 C 296.466 298.813, 296.330 304.268, 295.755 305.384 C 295.186 306.492, 295.071 310.697, 295.478 315.582 L 296.171 323.896 300.835 320.627 C 305.382 317.442, 305.544 317.145, 307.237 308.929 C 309.433 298.270, 310.488 274.526, 309.009 269.034 C 307.807 264.568, 307.620 264.523, 300.500 266.964 M 127 267.924 C 124.525 268.298, 120.925 269.461, 119 270.508 C 117.075 271.555, 115.216 272.337, 114.869 272.245 C 113.677 271.932, 110.912 275.757, 110.437 278.377 C 109.163 285.401, 109.278 287.081, 111.121 288.372 C 112.147 289.091, 112.690 289.977, 112.327 290.340 C 111.964 290.703, 112.218 291, 112.892 291 C 113.566 291, 113.840 291.450, 113.500 292 C 113.160 292.550, 113.771 293, 114.858 293 C 115.944 293, 117.040 293.563, 117.292 294.250 C 117.658 295.250, 118.015 295.250, 119.075 294.250 C 120.818 292.605, 121.528 292.671, 123.519 294.662 C 124.924 296.067, 125.320 296.106, 126.075 294.912 C 126.810 293.752, 126.972 293.744, 126.985 294.867 C 127 296.216, 128.338 296.112, 132.414 294.444 C 133.763 293.891, 134.115 294.006, 133.605 294.830 C 133.167 295.539, 133.519 296, 134.500 296 C 135.390 296, 135.842 295.553, 135.504 295.006 C 135.112 294.372, 137.262 294.155, 141.442 294.407 C 145.177 294.631, 147.755 294.413, 147.438 293.900 C 147.132 293.405, 147.557 293, 148.382 293 C 149.207 293, 150.174 293.472, 150.530 294.049 C 150.976 294.770, 151.604 294.744, 152.541 293.966 C 153.291 293.344, 154.847 293.134, 156 293.500 C 157.210 293.884, 158.791 293.602, 159.740 292.833 C 161.113 291.720, 161.250 291.722, 160.574 292.846 C 159.989 293.817, 160.283 294.088, 161.632 293.817 C 162.659 293.611, 164.337 294.210, 165.360 295.148 C 166.383 296.086, 167.787 296.635, 168.481 296.369 C 169.175 296.103, 170.443 296.586, 171.300 297.442 C 172.156 298.299, 173.339 299, 173.929 299 C 174.518 299, 175 299.395, 175 299.879 C 175 300.362, 176.373 301.326, 178.052 302.022 C 179.920 302.795, 180.904 303.807, 180.588 304.630 C 180.299 305.386, 181.128 306.527, 182.483 307.237 C 185.285 308.705, 185.713 309.933, 183.835 311.123 C 182.837 311.756, 182.815 311.973, 183.750 311.985 C 184.438 311.993, 185.014 313.012, 185.032 314.250 C 185.066 316.648, 187.616 320.717, 188.519 319.814 C 189.155 319.178, 189.182 314.914, 188.582 310 C 188.346 308.075, 188.119 306.174, 188.077 305.776 C 188.035 305.377, 186.703 304.381, 185.117 303.561 C 183.532 302.741, 181.973 301.028, 181.654 299.756 C 181.334 298.483, 179.706 295.911, 178.036 294.041 C 176.366 292.170, 175 289.779, 175 288.726 C 175 287.654, 174.121 286.583, 173 286.290 C 171.900 286.002, 171 285.363, 171 284.869 C 171 283.647, 164.776 278.066, 163.372 278.029 C 162.752 278.013, 161.689 277.330, 161.009 276.511 C 160.329 275.692, 159.393 275.257, 158.927 275.545 C 158.462 275.832, 157.276 275.669, 156.291 275.181 C 141.968 268.088, 135.883 266.581, 127 267.924 M 242 274.941 C 242 275.459, 242.450 276.160, 243 276.500 C 243.550 276.840, 244.006 279.229, 244.014 281.809 C 244.021 284.389, 244.299 287.512, 244.630 288.750 C 245.812 293.161, 247 290.892, 247 284.222 C 247 278.669, 246.637 277.133, 244.989 275.722 C 242.710 273.771, 242 273.585, 242 274.941 M 315.593 279.209 C 314.599 284.103, 314.122 294.957, 314.880 295.426 C 315.319 295.697, 315.752 293.979, 315.842 291.608 C 315.932 289.237, 316.397 285.197, 316.877 282.630 C 317.356 280.063, 317.368 277.728, 316.904 277.440 C 316.439 277.153, 315.849 277.949, 315.593 279.209 M 269 288.066 C 269 292.165, 276.116 295.782, 278.450 292.868 C 279.053 292.116, 280.384 291.034, 281.408 290.464 C 282.432 289.894, 283.227 288.994, 283.174 288.464 C 283.042 287.119, 279.141 286.646, 277.695 287.800 C 277.029 288.331, 275.614 288.396, 274.500 287.947 C 271.603 286.779, 269 286.835, 269 288.066 M 314.202 301.934 C 314.079 303.548, 314.433 305.150, 314.989 305.493 C 315.545 305.837, 316.034 305.304, 316.077 304.309 C 316.119 303.314, 316.304 301.712, 316.488 300.750 C 316.672 299.788, 316.284 299, 315.624 299 C 314.965 299, 314.325 300.320, 314.202 301.934 M 283.875 311.627 C 279.256 313.044, 279.249 313.052, 278.746 318.273 C 277.980 326.224, 279.020 328, 284.440 328 C 287.855 328, 289.177 327.537, 289.965 326.066 C 291.087 323.969, 291.377 314.147, 290.393 311.582 C 289.696 309.765, 289.952 309.763, 283.875 311.627 M 187.992 325.250 C 188.107 332.013, 187.280 343.296, 186.491 345.750 C 186.065 347.074, 186.182 348, 186.775 348 C 187.827 348, 189.154 344.286, 189.634 340 C 189.788 338.625, 190.115 336.600, 190.362 335.500 C 190.608 334.400, 190.460 332.600, 190.033 331.500 C 189.557 330.276, 189.813 328.405, 190.691 326.678 C 191.806 324.485, 191.862 323.538, 190.940 322.428 C 188.879 319.945, 187.918 320.865, 187.992 325.250 M 312.871 325.750 C 312.707 329.226, 312.742 336.368, 312.997 351.210 C 313.145 359.835, 313.567 363.226, 314.599 364.082 C 316.295 365.489, 316.246 366.108, 316.168 344.287 C 316.135 335.026, 315.661 327.235, 315.063 326.117 C 314.294 324.680, 314.345 324.028, 315.258 323.660 C 315.990 323.364, 315.782 323.126, 314.750 323.079 C 313.517 323.023, 312.962 323.813, 312.871 325.750 M 296 331.969 C 296 332.501, 295.324 332.678, 294.498 332.361 C 293.672 332.044, 291.872 332.066, 290.498 332.411 C 287.325 333.207, 286.963 337.496, 290.001 338.290 C 291.102 338.578, 291.782 338.457, 291.513 338.020 C 291.243 337.584, 291.917 336.993, 293.011 336.707 C 294.270 336.378, 295 336.682, 295 337.535 C 295 339.238, 293.085 340.500, 290.500 340.500 C 288.608 340.500, 288.503 341.150, 288.549 352.500 C 288.608 367.100, 289.589 377.128, 291.044 378.027 C 291.641 378.396, 293.183 378.496, 294.472 378.250 C 296.190 377.922, 296.980 376.922, 297.434 374.498 C 297.775 372.680, 298.775 370.917, 299.655 370.579 C 301.057 370.041, 301.157 368.575, 300.464 358.732 C 300.030 352.555, 299.635 345.796, 299.587 343.714 C 299.538 341.562, 298.852 339.479, 298 338.888 C 296.872 338.106, 296.810 337.722, 297.750 337.341 C 299.583 336.597, 299.362 331, 297.500 331 C 296.675 331, 296 331.436, 296 331.969 M 306.104 333.500 C 305.320 337.903, 304.989 355.982, 305.639 358.877 C 306.308 361.851, 306.547 360.710, 306.977 352.500 C 307.406 344.293, 306.745 329.899, 306.104 333.500 M 277.124 349.539 C 276.467 358.085, 276.164 365.456, 276.450 365.919 C 276.736 366.382, 278.006 366.959, 279.273 367.201 C 281.573 367.641, 281.575 367.632, 281.810 354.321 C 281.940 346.994, 281.676 341, 281.224 341 C 280.771 341, 280.585 339.425, 280.810 337.500 C 281.111 334.921, 280.837 334, 279.768 334 C 278.614 334, 278.074 337.177, 277.124 349.539 M 267.250 347.668 C 262.739 352.351, 262 353.669, 262 357.033 C 262 360.358, 262.445 361.179, 264.950 362.474 C 269.312 364.730, 270.668 364.371, 271.469 360.750 C 272.232 357.301, 273.340 341.924, 272.812 342.109 C 272.640 342.169, 270.137 344.671, 267.250 347.668 M 181.548 355.907 C 180.668 357.608, 180.338 359, 180.814 359 C 181.828 359, 184.292 353.959, 183.611 353.278 C 183.356 353.023, 182.428 354.206, 181.548 355.907 M 262 371.500 L 262 378 265.283 378 C 268.524 378, 268.568 377.937, 268.782 373.025 C 268.981 368.433, 268.771 367.933, 266.049 366.525 C 264.427 365.686, 262.852 365, 262.550 365 C 262.247 365, 262 367.925, 262 371.500 M 274.755 370.746 C 274.553 371.161, 274.266 372.962, 274.118 374.750 C 273.835 378.173, 273.850 378.182, 280 378.182 C 284.680 378.182, 285 378.085, 285 376.674 C 285 373.727, 275.876 368.448, 274.755 370.746 M 305.061 372.339 C 303.121 374.279, 303.826 377.736, 306.250 378.172 C 311.365 379.093, 313.446 376.838, 311.022 373 C 309.897 371.217, 306.553 370.847, 305.061 372.339 M 166.919 423.250 C 166.454 424.679, 166.587 429, 167.095 429 C 168.506 429, 170.003 426.172, 169.410 424.627 C 168.893 423.278, 167.211 422.349, 166.919 423.250 M 111.500 425 C 111.160 425.550, 111.303 426, 111.817 426 C 112.354 426, 112.181 428.662, 111.411 432.250 C 109.645 440.482, 109.674 441.218, 111.750 440.764 C 112.713 440.553, 113.386 439.842, 113.247 439.183 C 113.027 438.135, 113.722 434.188, 115.527 426.250 C 115.923 424.508, 115.596 424, 114.078 424 C 113 424, 111.840 424.450, 111.500 425 M 276.075 425.250 C 276.497 428.505, 275.867 430, 274.073 430 C 271.607 430, 268 434.553, 268 437.666 C 268 440.372, 270.553 441.847, 272.267 440.133 C 273.111 439.289, 273.094 439, 272.200 439 C 270.727 439, 270.633 435.554, 272.035 432.934 C 272.605 431.870, 273.736 431, 274.549 431 C 275.852 431, 275.853 431.417, 274.554 434.525 C 273.744 436.463, 273.345 438.735, 273.667 439.574 C 274.343 441.336, 277.626 440.978, 277.247 439.183 C 277.027 438.135, 277.722 434.188, 279.527 426.250 C 279.929 424.479, 279.599 424, 277.975 424 C 276.841 424, 275.985 424.563, 276.075 425.250 M 319.340 424.795 C 315.080 425, 313.007 425.540, 312.621 426.545 C 311.941 428.317, 312.438 428.368, 314.968 426.788 C 316.036 426.121, 317.153 425.820, 317.452 426.119 C 318.233 426.899, 316.010 438.264, 314.785 439.750 C 314.001 440.702, 314.478 441, 316.784 441 C 319.269 441, 319.723 440.658, 319.315 439.097 C 319.042 438.051, 319.341 434.676, 319.980 431.597 C 320.884 427.242, 321.551 426, 322.988 426 C 324.003 426, 325.034 426.563, 325.280 427.250 C 325.525 427.938, 326.054 428.196, 326.455 427.825 C 326.855 427.454, 326.805 426.554, 326.342 425.825 C 325.755 424.902, 323.632 424.590, 319.340 424.795 M 328.941 424.250 C 328.909 424.387, 328.744 426.075, 328.575 428 C 328.407 429.925, 327.932 433.637, 327.521 436.250 C 326.995 439.586, 327.114 441, 327.918 441 C 328.548 441, 329.306 440.212, 329.604 439.250 C 329.902 438.288, 330.556 436.730, 331.057 435.790 C 331.558 434.849, 331.717 433.427, 331.412 432.630 C 331.106 431.834, 331.302 429.566, 331.847 427.591 C 332.736 424.373, 332.640 424, 330.919 424 C 329.864 424, 328.973 424.113, 328.941 424.250 M 448.923 424.250 C 448.881 424.387, 448.730 425.850, 448.588 427.500 C 448.445 429.150, 447.972 432.863, 447.536 435.750 L 446.742 441 449.697 441 C 454.249 441, 457.607 436.587, 457.115 431.250 C 457.052 430.563, 456.190 430, 455.200 430 C 454.210 430, 452.837 430.563, 452.149 431.250 C 451.147 432.251, 451.033 431.652, 451.577 428.250 C 452.142 424.713, 451.983 424, 450.628 424 C 449.733 424, 448.965 424.113, 448.923 424.250 M 87.082 431.250 C 85.222 434.688, 83.024 438.288, 82.196 439.250 C 80.816 440.853, 80.905 441, 83.251 441 C 85.236 441, 85.706 440.590, 85.337 439.180 C 84.746 436.922, 87.412 434.560, 89.601 435.401 C 90.706 435.825, 91.076 436.823, 90.753 438.512 C 90.330 440.724, 90.617 441, 93.339 441 C 95.720 441, 96.133 440.733, 95.200 439.800 C 94.540 439.140, 94 437.812, 94 436.849 C 94 433.850, 91.870 425, 91.148 425 C 90.770 425, 88.941 427.813, 87.082 431.250 M 159.363 425.779 C 159.917 426.675, 157.670 438.108, 156.598 439.841 C 156.120 440.615, 156.815 440.997, 158.691 440.992 C 161.433 440.984, 161.503 440.844, 161.631 435.148 C 161.703 431.939, 162.282 428.342, 162.916 427.156 C 163.960 425.205, 163.823 425, 161.476 425 C 160.049 425, 159.099 425.350, 159.363 425.779 M 288 426.583 C 288 428.349, 290.153 428.042, 290.771 426.188 C 290.989 425.534, 290.454 425, 289.583 425 C 288.712 425, 288 425.712, 288 426.583 M 342 426.583 C 342 427.454, 342.534 427.989, 343.188 427.771 C 345.042 427.153, 345.349 425, 343.583 425 C 342.712 425, 342 425.712, 342 426.583 M 378 426.583 C 378 428.349, 380.153 428.042, 380.771 426.188 C 380.989 425.534, 380.454 425, 379.583 425 C 378.712 425, 378 425.712, 378 426.583 M 98.762 428.965 C 97.836 430.046, 97.464 431.169, 97.935 431.460 C 98.410 431.753, 98.403 433.665, 97.920 435.745 C 97.440 437.810, 97.037 439.837, 97.024 440.250 C 96.988 441.373, 101.787 441.154, 102.500 440 C 102.840 439.450, 102.428 439, 101.584 439 C 99.590 439, 100.531 433.071, 102.815 431.250 C 103.763 430.494, 103.912 430, 103.191 430 C 102.536 430, 102 429.325, 102 428.500 C 102 426.443, 100.770 426.620, 98.762 428.965 M 138.972 428.772 C 138.163 429.746, 137.402 432.896, 137.282 435.772 C 137.100 440.137, 137.348 440.997, 138.782 440.985 C 139.727 440.976, 141.175 440.533, 142 440 C 143.268 439.180, 143.218 439.028, 141.671 439.015 C 140.137 439.002, 139.950 438.475, 140.514 435.750 C 140.884 433.962, 141.906 431.938, 142.785 431.250 C 143.730 430.510, 143.896 430, 143.191 430 C 142.536 430, 142 429.325, 142 428.500 C 142 426.495, 140.772 426.605, 138.972 428.772 M 230.732 429 C 229.790 430.100, 229.399 431, 229.863 431 C 230.327 431, 230.490 433.250, 230.226 436 C 229.789 440.543, 229.935 441, 231.814 441 C 232.951 441, 234.160 440.550, 234.500 440 C 234.840 439.450, 234.464 439, 233.664 439 C 232.508 439, 232.379 438.254, 233.033 435.354 C 233.485 433.348, 234.450 431.330, 235.178 430.869 C 236.177 430.236, 236.194 430.027, 235.250 430.015 C 234.563 430.007, 234 429.325, 234 428.500 C 234 426.434, 232.768 426.622, 230.732 429 M 293.785 428.938 C 292.873 430.003, 292.573 431.024, 293.120 431.207 C 293.773 431.424, 293.783 433.012, 293.148 435.835 C 292.099 440.505, 293.247 441.977, 296.750 440.452 C 298.256 439.797, 298.281 439.637, 296.929 439.306 C 294.906 438.812, 295.528 433.039, 297.797 431.250 C 298.744 430.503, 298.902 430, 298.191 430 C 297.536 430, 297 429.325, 297 428.500 C 297 426.451, 295.772 426.618, 293.785 428.938 M 494.785 428.938 C 493.873 430.003, 493.512 431.016, 493.983 431.188 C 494.454 431.359, 494.480 433.447, 494.040 435.827 C 493.175 440.508, 494.326 441.943, 497.750 440.452 C 499.256 439.797, 499.281 439.637, 497.929 439.306 C 495.906 438.812, 496.528 433.039, 498.797 431.250 C 499.744 430.503, 499.902 430, 499.191 430 C 498.536 430, 498 429.325, 498 428.500 C 498 426.451, 496.772 426.618, 494.785 428.938 M 88 432 C 87.100 433.681, 87.240 434, 88.871 434 C 90.320 434, 90.680 433.493, 90.290 432 C 90.002 430.900, 89.610 430, 89.419 430 C 89.227 430, 88.589 430.900, 88 432 M 118.073 432.635 C 116.933 434.084, 116 436.348, 116 437.666 C 116 440.372, 118.553 441.847, 120.267 440.133 C 121.111 439.289, 121.094 439, 120.200 439 C 118.550 439, 118.689 434.807, 120.418 432.443 C 122.415 429.713, 123.636 431.478, 122.264 435.111 C 120.937 438.627, 121.605 441.229, 123.725 440.799 C 124.730 440.595, 125.327 438.834, 125.605 435.250 C 126.011 430.017, 126.003 430, 123.079 430 C 121.101 430, 119.470 430.858, 118.073 432.635 M 129.667 430.667 C 128.381 431.953, 129.019 434.707, 131.024 436.521 C 133.450 438.718, 132.041 441.109, 129.542 439.035 C 128.260 437.971, 128 438.029, 128 439.378 C 128 440.310, 128.815 441, 129.918 441 C 135.112 441, 136.635 437.789, 133 434.500 C 130.267 432.026, 130.489 430.655, 133.500 431.411 C 134.942 431.772, 136 431.607, 136 431.019 C 136 429.896, 130.730 429.603, 129.667 430.667 M 170 431.001 C 169.175 431.534, 169.007 431.976, 169.627 431.985 C 170.370 431.995, 170.582 433.533, 170.247 436.500 C 169.799 440.472, 169.969 441, 171.696 441 C 173.753 441, 176.980 437.995, 178.875 434.316 C 180.405 431.345, 180.288 430, 178.500 430 C 177.538 430, 176.989 430.986, 176.968 432.750 C 176.937 435.434, 174.995 439, 173.563 439 C 173.169 439, 172.983 437.121, 173.149 434.825 C 173.463 430.475, 172.544 429.359, 170 431.001 M 182.807 431.750 C 179.157 436, 180.059 441, 184.476 441 C 187.592 441, 188.696 439.241, 185.843 438.821 C 182.538 438.336, 182.612 436.585, 185.991 435.310 C 189.799 433.872, 190.283 430, 186.655 430 C 185.365 430, 183.634 430.788, 182.807 431.750 M 197.807 431.750 C 193.156 437.166, 196.571 443.796, 202 439.890 C 203.284 438.967, 203.259 438.888, 201.823 439.346 C 199.427 440.110, 197.793 437.672, 198.586 434.515 C 199.368 431.399, 201.810 430.090, 203.086 432.104 C 203.793 433.221, 203.972 433.151, 203.985 431.750 C 203.995 430.576, 203.227 430, 201.655 430 C 200.365 430, 198.634 430.788, 197.807 431.750 M 207.174 432.314 C 204.308 435.365, 204.157 441, 206.941 441 C 208.009 441, 209.190 440.502, 209.566 439.893 C 210.062 439.090, 210.444 439.100, 210.955 439.927 C 212.540 442.491, 214.503 439.885, 214.680 434.980 C 214.855 430.168, 214.768 430, 212.105 430 C 210.517 430, 208.427 430.981, 207.174 432.314 M 218.244 430.664 C 217.553 430.943, 217.261 431.613, 217.594 432.153 C 217.928 432.693, 217.651 436.049, 216.979 439.612 C 216.307 443.175, 215.972 446.305, 216.235 446.568 C 217.390 447.723, 219.744 445.736, 219.288 443.991 C 218.917 442.575, 219.663 441.750, 222.318 440.641 C 224.254 439.831, 226.325 438.261, 226.920 437.150 C 229.523 432.285, 226.892 428.338, 222.763 430.916 C 221.616 431.632, 221.068 431.698, 221.454 431.074 C 222.135 429.973, 220.482 429.762, 218.244 430.664 M 238 431 C 237.175 431.533, 237.015 431.976, 237.645 431.985 C 238.448 431.995, 238.541 433.103, 237.956 435.695 C 236.724 441.156, 238.485 442.681, 242.171 439.345 C 243.873 437.805, 244 437.805, 244 439.345 C 244 440.255, 244.338 440.993, 244.750 440.985 C 246.649 440.946, 247.519 439.134, 247.742 434.750 C 247.929 431.097, 247.640 430, 246.492 430 C 245.672 430, 245 430.875, 245 431.944 C 245 433.014, 243.867 435.151, 242.482 436.694 L 239.964 439.500 240.575 436.500 C 240.911 434.850, 241.399 432.712, 241.660 431.750 C 242.184 429.819, 240.395 429.452, 238 431 M 251.500 430.765 C 249.986 431.877, 249.708 441.264, 251.203 440.766 C 251.866 440.545, 252.764 438.989, 253.200 437.308 C 253.963 434.362, 256.700 431.155, 257.879 431.825 C 258.193 432.004, 258.611 431.666, 258.808 431.075 C 259.294 429.619, 256.691 429.709, 255.200 431.200 C 254.267 432.133, 254 432.133, 254 431.200 C 254 429.848, 252.988 429.672, 251.500 430.765 M 260.807 431.750 C 257.157 436, 258.059 441, 262.476 441 C 265.592 441, 266.696 439.241, 263.843 438.821 C 261.446 438.469, 260.003 436, 262.194 436 C 264.562 436, 267.948 433.027, 267.351 431.473 C 266.576 429.452, 262.637 429.619, 260.807 431.750 M 287.500 430.765 C 286.950 431.169, 286.361 433.676, 286.191 436.335 C 285.931 440.398, 286.146 441.116, 287.540 440.835 C 288.764 440.588, 289.304 439.125, 289.605 435.250 C 290.001 430.151, 289.574 429.242, 287.500 430.765 M 332.981 431.523 C 331.932 432.787, 331.980 432.945, 333.269 432.450 C 334.606 431.937, 334.689 432.436, 333.875 436.060 C 332.769 440.985, 333.176 441.702, 336.240 440.225 C 337.483 439.626, 337.993 439.105, 337.373 439.068 C 336.633 439.023, 336.420 437.452, 336.753 434.500 C 337.155 430.932, 336.948 430, 335.752 430 C 334.923 430, 333.676 430.685, 332.981 431.523 M 340.935 430.250 C 340.294 432.732, 340.112 440.996, 340.700 440.985 C 342.650 440.947, 343.517 439.171, 343.742 434.750 C 343.929 431.097, 343.640 430, 342.492 430 C 341.672 430, 340.971 430.113, 340.935 430.250 M 347.667 430.667 C 346.381 431.953, 347.019 434.707, 349.024 436.521 C 351.393 438.666, 350.067 441.130, 347.631 439.109 C 346.635 438.282, 345.973 438.235, 345.526 438.959 C 344.757 440.202, 347.157 441.312, 349.584 440.835 C 350.520 440.651, 351.769 439.733, 352.359 438.795 C 353.201 437.459, 352.953 436.579, 351.217 434.730 C 348.305 431.632, 348.416 430.637, 351.584 431.432 C 353.259 431.852, 353.942 431.715, 353.525 431.040 C 352.811 429.885, 348.709 429.624, 347.667 430.667 M 376.882 430.750 C 376.816 431.163, 376.828 431.872, 376.907 432.327 C 376.987 432.782, 376.627 434.691, 376.108 436.569 C 375.137 440.089, 375.822 441.396, 378.160 440.483 C 380.107 439.723, 380.358 430, 378.430 430 C 377.644 430, 376.947 430.337, 376.882 430.750 M 383.093 431.388 C 382.192 432.474, 382.510 433.453, 384.558 435.886 C 386.869 438.633, 386.978 439.071, 385.486 439.644 C 384.518 440.015, 383.438 439.709, 382.953 438.925 C 382.489 438.173, 381.777 437.890, 381.371 438.296 C 380.161 439.506, 382.597 441.195, 385.033 440.835 C 388.807 440.276, 389.806 437.486, 387.217 434.730 C 384.466 431.803, 384.391 430.607, 387 431.290 C 388.100 431.577, 389 431.405, 389 430.906 C 389 429.474, 384.368 429.852, 383.093 431.388 M 397 431 C 396.175 431.533, 396.015 431.976, 396.645 431.985 C 397.448 431.995, 397.541 433.103, 396.956 435.695 C 395.724 441.156, 397.485 442.681, 401.171 439.345 C 403.269 437.447, 403.462 438.375, 401.902 442.851 C 400.748 446.162, 399.203 446.803, 397.200 444.800 C 396.267 443.867, 396 443.978, 396 445.300 C 396 446.409, 396.802 447, 398.309 447 C 402.273 447, 404.096 444.722, 405.546 437.954 C 407.289 429.825, 407.290 430, 405.500 430 C 404.675 430, 404 430.875, 404 431.944 C 404 433.014, 402.867 435.151, 401.482 436.694 L 398.964 439.500 399.575 436.500 C 399.911 434.850, 400.399 432.712, 400.660 431.750 C 401.184 429.819, 399.395 429.452, 397 431 M 410 432 C 406.634 435.366, 407.640 441, 411.607 441 C 414.644 441, 418 437.693, 418 434.700 C 418 429.999, 413.514 428.486, 410 432 M 420 431 C 419.175 431.533, 419.007 431.976, 419.627 431.985 C 420.370 431.995, 420.582 433.533, 420.247 436.500 C 419.845 440.068, 420.052 441, 421.248 441 C 422.077 441, 423.324 440.315, 424.019 439.477 C 425.068 438.213, 425.019 438.055, 423.730 438.550 C 422.405 439.058, 422.308 438.585, 423.065 435.323 C 423.553 433.220, 423.963 431.163, 423.976 430.750 C 424.009 429.702, 421.793 429.841, 420 431 M 427.396 431.750 C 427.098 432.712, 426.465 434.236, 425.990 435.135 C 425.104 436.813, 425.733 441.012, 426.867 440.985 C 428.637 440.942, 429.529 439.048, 429.800 434.750 C 430.097 430.048, 428.528 428.091, 427.396 431.750 M 433 431 C 432.175 431.533, 432.015 431.976, 432.645 431.985 C 433.455 431.996, 433.535 433.095, 432.919 435.750 C 431.748 440.789, 431.772 441, 433.500 441 C 434.325 441, 435.016 440.212, 435.035 439.250 C 435.055 438.288, 435.681 436.398, 436.427 435.050 C 438.651 431.036, 436.633 428.652, 433 431 M 460.637 431.506 C 458.400 433.743, 457.751 436.665, 458.980 438.962 C 460.128 441.107, 461.637 441.461, 464.668 440.296 C 466.282 439.676, 466.211 439.524, 464.074 439.018 C 460.523 438.179, 460.467 436.381, 463.955 435.166 C 467.848 433.809, 468.302 430, 464.571 430 C 463.236 430, 461.465 430.678, 460.637 431.506 M 470.073 432.635 C 468.933 434.084, 468 436.348, 468 437.666 C 468 440.372, 470.553 441.847, 472.267 440.133 C 473.111 439.289, 473.094 439, 472.200 439 C 470.550 439, 470.689 434.807, 472.418 432.443 C 474.415 429.713, 475.636 431.478, 474.264 435.111 C 472.937 438.627, 473.605 441.229, 475.725 440.799 C 476.730 440.595, 477.327 438.834, 477.605 435.250 C 478.011 430.017, 478.003 430, 475.079 430 C 473.101 430, 471.470 430.858, 470.073 432.635 M 481.137 430.894 C 480.292 431.430, 480.180 431.899, 480.843 432.129 C 481.557 432.377, 481.624 433.767, 481.046 436.316 C 480.361 439.339, 480.490 440.251, 481.668 440.703 C 482.486 441.017, 483.908 440.513, 484.828 439.583 C 486.376 438.017, 486.377 437.938, 484.839 438.519 C 483.383 439.068, 483.287 438.674, 484.065 435.323 C 484.553 433.220, 484.963 431.163, 484.976 430.750 C 485.008 429.743, 482.824 429.825, 481.137 430.894 M 488.396 431.750 C 488.098 432.712, 487.465 434.236, 486.990 435.135 C 486.104 436.813, 486.733 441.012, 487.867 440.985 C 489.637 440.942, 490.529 439.048, 490.800 434.750 C 491.097 430.048, 489.528 428.091, 488.396 431.750 M 502.500 430.580 C 501.011 431.208, 501.316 440.272, 502.843 440.781 C 503.543 441.014, 505.023 440.384, 506.133 439.380 C 508.120 437.581, 508.140 437.598, 507.451 440.527 C 506.422 444.903, 504.508 446.666, 502.550 445.042 C 501.258 443.969, 501 444.025, 501 445.378 C 501 447.363, 504.852 447.560, 507.390 445.704 C 508.418 444.953, 509.744 441.695, 510.546 437.954 C 512.289 429.825, 512.290 430, 510.500 430 C 509.675 430, 509 430.875, 509 431.944 C 509 433.014, 507.867 435.151, 506.482 436.694 L 503.964 439.500 504.575 436.500 C 504.911 434.850, 505.399 432.712, 505.660 431.750 C 506.113 430.079, 504.821 429.600, 502.500 430.580 M 184.667 431.667 C 184.300 432.033, 184 432.988, 184 433.789 C 184 434.970, 184.283 435.010, 185.500 434 C 186.325 433.315, 187 432.360, 187 431.878 C 187 430.842, 185.616 430.717, 184.667 431.667 M 209.200 432.200 C 208.540 432.860, 208 434.756, 208 436.414 C 208 439.046, 208.182 439.243, 209.434 437.964 C 211.177 436.185, 212.573 431, 211.308 431 C 210.809 431, 209.860 431.540, 209.200 432.200 M 262.667 431.667 C 262.300 432.033, 262 432.988, 262 433.789 C 262 434.970, 262.283 435.010, 263.500 434 C 264.325 433.315, 265 432.360, 265 431.878 C 265 430.842, 263.616 430.717, 262.667 431.667 M 412.160 432.240 C 410.913 433.487, 410.576 438.243, 411.658 439.325 C 412.884 440.550, 415 437.771, 415 434.937 C 415 431.683, 413.829 430.571, 412.160 432.240 M 462.667 431.667 C 462.300 432.033, 462 432.988, 462 433.789 C 462 434.970, 462.283 435.010, 463.500 434 C 464.325 433.315, 465 432.360, 465 431.878 C 465 430.842, 463.616 430.717, 462.667 431.667 M 221.305 435.487 C 220.390 437.406, 219.944 439.278, 220.315 439.648 C 221.470 440.804, 225 436.809, 225 434.345 C 225 430.926, 223.217 431.477, 221.305 435.487 M 451.557 434.223 C 449.865 436.638, 449.470 440, 450.878 440 C 452.225 440, 453.766 437.781, 454.528 434.744 C 455.372 431.382, 453.746 431.097, 451.557 434.223 M 145.162 439.750 C 145.321 440.712, 145.097 442.063, 144.666 442.750 C 143.562 444.510, 145.496 444.312, 146.989 442.513 C 148.347 440.877, 147.697 438, 145.969 438 C 145.367 438, 145.004 438.788, 145.162 439.750 M 300 439.500 C 300 440.325, 300.675 441, 301.500 441 C 302.325 441, 303 440.325, 303 439.500 C 303 438.675, 302.325 438, 301.500 438 C 300.675 438, 300 438.675, 300 439.500 M 354.543 438.931 C 353.803 440.128, 355.684 441.313, 357.016 440.490 C 358.135 439.799, 357.400 438, 356 438 C 355.515 438, 354.859 438.419, 354.543 438.931 M 359.543 438.931 C 359.226 439.443, 359.425 440.144, 359.984 440.490 C 361.177 441.227, 363 440.291, 363 438.941 C 363 437.724, 360.293 437.716, 359.543 438.931 M 364.543 438.931 C 364.226 439.443, 364.425 440.144, 364.984 440.490 C 366.177 441.227, 368 440.291, 368 438.941 C 368 437.724, 365.293 437.716, 364.543 438.931 M 513 439.500 C 513 440.325, 513.675 441, 514.500 441 C 515.325 441, 516 440.325, 516 439.500 C 516 438.675, 515.325 438, 514.500 438 C 513.675 438, 513 438.675, 513 439.500 M 278 455 C 276.900 456.100, 276 457.703, 276 458.563 C 276 459.529, 275.295 460.006, 274.154 459.813 C 273.138 459.641, 271.563 460.118, 270.654 460.873 C 269.469 461.855, 269 461.906, 269 461.049 C 269 460.391, 268.280 459.999, 267.401 460.177 C 266.243 460.411, 265.688 461.971, 265.388 465.838 C 264.923 471.839, 266.789 472.754, 268.221 467.227 C 269.039 464.070, 272.283 461, 274.802 461 C 275.802 461, 275.985 461.855, 275.497 464.250 C 273.837 472.408, 272.874 474.878, 271.230 475.204 C 269.970 475.454, 269.837 475.759, 270.742 476.327 C 272.963 477.723, 276.778 472.689, 277.526 467.376 C 277.904 464.694, 278.926 461.938, 279.798 461.250 C 280.744 460.503, 280.903 460, 280.191 460 C 278.134 460, 278.846 455.853, 281 455.290 C 282.100 455.002, 283 454.369, 283 453.883 C 283 452.295, 280.045 452.955, 278 455 M 316.805 453.739 C 315.805 453.967, 315.338 454.718, 315.667 455.574 C 315.972 456.370, 315.668 459.962, 314.989 463.556 C 314.311 467.150, 313.972 470.305, 314.235 470.568 C 315.155 471.488, 317.870 469.824, 317.409 468.623 C 317.153 467.957, 317.578 464.388, 318.353 460.692 C 319.810 453.741, 319.664 453.086, 316.805 453.739 M 330 453.820 C 329.102 454.227, 328.475 455.906, 328.438 458 C 328.404 459.925, 328.016 463.637, 327.575 466.250 C 326.742 471.183, 328.202 473.089, 329.553 468.834 L 330.240 466.667 331.974 468.965 C 333.395 470.849, 334.049 471.065, 335.604 470.162 C 336.647 469.556, 336.982 469.047, 336.349 469.030 C 335.716 469.014, 334.263 467.416, 333.121 465.480 C 331.494 462.723, 331.177 460.988, 331.658 457.480 C 331.996 455.016, 332.098 453.032, 331.886 453.070 C 331.674 453.109, 330.825 453.446, 330 453.820 M 226.867 461.701 C 224.465 465.990, 222.382 469.741, 222.238 470.036 C 222.094 470.331, 222.891 470.642, 224.010 470.726 C 225.128 470.810, 225.779 470.452, 225.457 469.931 C 224.277 468.021, 226.117 465, 228.460 465 C 230.856 465, 232.302 467.049, 231.458 469.250 C 231.159 470.032, 231.945 470.556, 233.558 470.648 C 235.590 470.765, 235.991 470.448, 235.449 469.148 C 235.071 468.242, 234.210 464.682, 233.535 461.238 C 232.861 457.794, 232.067 454.734, 231.772 454.439 C 231.476 454.143, 229.269 457.411, 226.867 461.701 M 322.991 455.511 C 321.962 456.750, 322.111 457, 323.878 457 C 325.045 457, 326 456.577, 326 456.059 C 326 454.327, 324.240 454.006, 322.991 455.511 M 303 458.500 C 303 459.325, 302.663 460.001, 302.250 460.002 C 301.298 460.006, 301.259 469.590, 302.207 470.539 C 302.596 470.929, 303.708 470.942, 304.679 470.570 C 305.924 470.092, 306.093 469.675, 305.251 469.155 C 303.452 468.043, 304.842 461.020, 306.881 460.921 C 307.916 460.871, 308.050 460.660, 307.250 460.338 C 306.563 460.060, 306 459.196, 306 458.417 C 306 457.637, 305.325 457, 304.500 457 C 303.675 457, 303 457.675, 303 458.500 M 257.607 461.095 C 252.314 465.258, 255.253 473.076, 260.962 470.020 C 263.641 468.587, 263.538 468.174, 260.641 468.728 C 257.757 469.280, 256.044 466.229, 258.767 465.390 C 263.790 463.841, 265.167 461.695, 262.168 460.090 C 260.639 459.272, 259.646 459.491, 257.607 461.095 M 283.390 461.519 C 279.058 465.851, 281.136 471.936, 286.487 470.593 C 289.815 469.757, 289.737 468.136, 286.401 468.774 C 284.284 469.179, 283.867 468.929, 284.156 467.429 C 284.351 466.416, 285.633 465.325, 287.005 465.003 C 290.301 464.230, 290.962 460.485, 287.942 459.695 C 286.469 459.310, 285.018 459.891, 283.390 461.519 M 293.390 461.519 C 289.058 465.851, 291.301 472.610, 296.274 470.210 L 298.500 469.135 296.250 469.068 C 294.475 469.014, 294.003 468.420, 294.015 466.250 C 294.037 462.296, 295.355 460.661, 297.875 461.460 C 299.044 461.831, 300 461.707, 300 461.184 C 300 458.966, 295.726 459.183, 293.390 461.519 M 333.861 461.056 C 331.746 462.898, 331.721 463.006, 333.619 462.092 C 334.784 461.530, 336.021 461.355, 336.369 461.702 C 336.716 462.049, 337 461.583, 337 460.667 C 337 458.533, 336.717 458.568, 333.861 461.056 M 340.607 461.095 C 337.799 463.303, 337.090 467.690, 339.200 469.800 C 340.770 471.370, 342.187 471.315, 344.540 469.595 C 346.338 468.280, 346.285 468.223, 343.731 468.711 C 341.452 469.147, 341 468.883, 341 467.117 C 341 465.745, 341.634 465, 342.800 465 C 344.635 465, 347 463.218, 347 461.835 C 347 461.415, 346.148 460.614, 345.107 460.057 C 343.654 459.280, 342.607 459.521, 340.607 461.095 M 381.750 460.082 C 379.388 461.455, 379.544 464.165, 382.113 466.365 C 383.733 467.752, 383.950 468.445, 383.046 469.337 C 382.146 470.223, 381.547 470.069, 380.529 468.690 C 379.603 467.437, 378.974 467.233, 378.483 468.027 C 377.354 469.855, 379.617 471.313, 382.470 470.597 C 386.085 469.690, 386.682 467.354, 384.022 464.523 C 381.502 461.841, 382.119 459.029, 384.752 461.201 C 386.061 462.282, 386.245 462.258, 385.850 461.063 C 385.221 459.159, 383.887 458.840, 381.750 460.082 M 228.605 461.588 C 227.750 463.816, 227.818 464, 229.500 464 C 230.325 464, 231 463.352, 231 462.559 C 231 460.443, 229.307 459.757, 228.605 461.588 M 243.923 460.250 C 243.881 460.387, 243.730 461.850, 243.588 463.500 C 243.445 465.150, 242.976 468.835, 242.544 471.688 C 241.810 476.539, 241.887 476.842, 243.726 476.361 C 245.118 475.997, 245.571 475.205, 245.274 473.651 C 244.937 471.892, 245.543 471.206, 248.316 470.203 C 253.736 468.243, 256.092 460, 251.231 460 C 250.224 460, 248.860 460.540, 248.200 461.200 C 247.267 462.133, 247 462.133, 247 461.200 C 247 460.229, 244.196 459.363, 243.923 460.250 M 321.882 460.750 C 321.816 461.163, 321.788 461.753, 321.819 462.062 C 321.849 462.370, 321.499 464.285, 321.041 466.317 C 320.082 470.572, 321.348 472.081, 323.810 469.618 C 324.749 468.679, 324.948 468, 324.284 468 C 323.469 468, 323.407 467.067, 324.070 464.757 C 324.581 462.973, 325 461.173, 325 460.757 C 325 459.773, 322.037 459.766, 321.882 460.750 M 348.960 460.250 C 347.762 467.792, 348.985 474.483, 350.604 469.250 C 350.902 468.288, 351.535 466.764, 352.010 465.865 C 353.153 463.701, 352.127 460, 350.383 460 C 349.623 460, 348.982 460.113, 348.960 460.250 M 353.658 461.449 C 353.273 462.453, 353.582 462.714, 354.666 462.298 C 355.882 461.831, 356.094 462.177, 355.615 463.849 C 355.277 465.032, 354.757 466.862, 354.459 467.916 C 353.733 470.489, 355.272 471.264, 357.603 469.500 C 358.646 468.710, 358.985 468.049, 358.355 468.032 C 357.568 468.010, 357.454 466.923, 357.989 464.550 C 358.417 462.653, 358.519 460.853, 358.217 460.550 C 357.123 459.457, 354.201 460.033, 353.658 461.449 M 362.128 461.345 C 361.514 462.085, 360.745 464.023, 360.420 465.651 C 359.680 469.349, 361.884 471.497, 365.487 470.593 C 368.609 469.809, 368.790 468.313, 365.750 468.421 C 362.651 468.530, 362.855 465.741, 366 465.004 C 367.579 464.634, 368.618 463.605, 368.820 462.209 C 369.087 460.358, 368.662 460, 366.192 460 C 364.571 460, 362.742 460.605, 362.128 461.345 M 371.667 460.667 C 370.435 461.899, 370.985 463.985, 373.100 466.100 C 374.697 467.697, 374.920 468.476, 374.033 469.350 C 373.151 470.219, 372.515 470.026, 371.433 468.559 C 370.162 466.837, 370 466.812, 370 468.340 C 370 470.618, 372.337 471.425, 374.922 470.042 C 377.593 468.612, 377.593 465.388, 374.922 463.958 C 373.733 463.322, 373.078 462.238, 373.391 461.423 C 373.952 459.961, 372.854 459.479, 371.667 460.667 M 247.585 463.835 C 246.713 465.521, 246 467.614, 246 468.486 C 246 471.068, 249.654 468.513, 250.440 465.382 C 251.465 461.298, 249.459 460.212, 247.585 463.835 M 258.459 462.067 C 258.096 462.653, 258.040 463.373, 258.333 463.667 C 259.050 464.383, 261 463.121, 261 461.941 C 261 460.663, 259.274 460.748, 258.459 462.067 M 284.638 462.500 C 284.300 463.381, 284.625 464, 285.424 464 C 286.173 464, 287.045 463.325, 287.362 462.500 C 287.700 461.619, 287.375 461, 286.576 461 C 285.827 461, 284.955 461.675, 284.638 462.500 M 341.459 462.067 C 341.096 462.653, 341.040 463.373, 341.333 463.667 C 342.050 464.383, 344 463.121, 344 461.941 C 344 460.663, 342.274 460.748, 341.459 462.067 M 364 462.500 C 364 463.325, 364.402 464, 364.893 464 C 365.384 464, 366.045 463.325, 366.362 462.500 C 366.712 461.586, 366.363 461, 365.469 461 C 364.661 461, 364 461.675, 364 462.500 M 388.074 467.954 C 386.742 468.777, 387.383 471, 388.952 471 C 390.093 471, 391.094 468.176, 390.159 467.598 C 389.744 467.342, 388.806 467.502, 388.074 467.954 M 187.330 491.750 C 249.387 491.892, 350.637 491.892, 412.330 491.750 C 474.024 491.608, 423.250 491.491, 299.500 491.491 C 175.750 491.491, 125.274 491.608, 187.330 491.750" stroke="none" fill="#090a0f" fill-rule="evenodd"/><path d="M 0 300.002 L 0 600.003 300.250 599.752 L 600.500 599.500 600.752 299.750 L 601.003 0 300.502 0 L 0 0 0 300.002 M 0.493 300.500 C 0.493 465.500, 0.609 532.851, 0.750 450.169 C 0.891 367.487, 0.891 232.487, 0.750 150.169 C 0.609 67.851, 0.493 135.500, 0.493 300.500 M 69 164.500 C 69 220.751, 69.042 222, 70.941 222 C 72.009 222, 73.191 221.500, 73.569 220.888 C 73.947 220.277, 76.744 218.677, 79.784 217.332 C 84.203 215.378, 85.497 215.149, 86.232 216.194 C 86.962 217.229, 87.072 217.204, 86.766 216.069 C 86.281 214.272, 93.881 207, 96.245 207 C 97.210 207, 98.019 206.662, 98.043 206.250 C 98.066 205.838, 101.045 203.475, 104.663 201 C 108.281 198.525, 113.550 194.365, 116.371 191.755 C 119.192 189.146, 122.737 186.449, 124.250 185.761 C 125.763 185.074, 127 184.172, 127 183.756 C 127 183.340, 127.675 183, 128.500 183 C 129.325 183, 130 182.578, 130 182.063 C 130 181.548, 131.659 179.561, 133.686 177.649 C 136.245 175.234, 138.696 173.973, 141.705 173.522 C 144.706 173.072, 146.516 172.142, 147.592 170.499 C 148.448 169.194, 150.576 167.824, 152.324 167.454 C 154.071 167.084, 157.188 165.048, 159.250 162.929 C 163.245 158.826, 167.443 157.238, 175.308 156.855 C 177.953 156.726, 180.330 156.275, 180.590 155.854 C 180.851 155.432, 181.730 155.343, 182.545 155.656 C 183.359 155.968, 184.582 155.792, 185.263 155.264 C 187.737 153.346, 197.632 150.671, 203 150.470 C 213.176 150.088, 225.821 151.837, 229.916 154.194 C 235.230 157.252, 239 163.507, 239 169.266 C 239 173.206, 238.560 174.175, 235.750 176.426 C 233.962 177.858, 231.956 179.473, 231.292 180.015 C 230.628 180.557, 228.078 181, 225.626 181 C 223.173 181, 220.996 181.513, 220.786 182.141 C 220.301 183.596, 203.963 184.203, 202.298 182.828 C 201.637 182.281, 200.212 182.115, 199.132 182.458 C 198.052 182.801, 196.879 182.613, 196.525 182.041 C 195.667 180.653, 189.300 180.705, 188.434 182.107 C 187.943 182.901, 187.543 182.878, 187.014 182.023 C 185.851 180.140, 166.082 180.312, 162.984 182.232 C 161.313 183.268, 160.784 183.252, 160.094 182.143 C 159.533 181.242, 159.030 181.143, 158.593 181.850 C 158.232 182.434, 157.347 182.687, 156.628 182.411 C 155.909 182.135, 154.743 182.604, 154.038 183.454 C 153.332 184.305, 152.182 185, 151.481 185 C 150.014 185, 127.067 196.533, 125.585 198.015 C 125.043 198.557, 123.862 199, 122.961 199 C 122.059 199, 120.805 200.133, 120.174 201.517 C 119.196 203.665, 118.554 203.950, 115.794 203.464 C 114.016 203.150, 112.857 203.190, 113.219 203.552 C 114.071 204.405, 109.124 209, 107.354 209 C 106.609 209, 106 209.450, 106 210 C 106 210.550, 105.373 211, 104.607 211 C 103.841 211, 102.980 211.611, 102.693 212.358 C 102.406 213.105, 100.790 213.992, 99.100 214.330 C 97.410 214.668, 95.234 215.912, 94.264 217.095 C 90.723 221.412, 88.511 223.055, 84.948 224.014 C 82.948 224.553, 78.541 226.638, 75.155 228.647 L 69 232.300 69 306.149 L 69 379.997 234.430 379.994 C 325.417 379.992, 400.564 379.721, 401.425 379.391 C 402.285 379.060, 402.740 378.388, 402.435 377.895 C 402.131 377.403, 402.921 377.007, 404.191 377.015 C 405.828 377.026, 406.114 377.276, 405.173 377.872 C 402.387 379.638, 412.930 379.978, 470.750 379.989 L 530 380 530 243.500 L 530 107 496.622 107 C 469.414 107, 463.033 107.256, 462.096 108.384 C 460.522 110.281, 457.986 125.176, 457.990 132.500 C 457.996 141.644, 458.720 151.737, 459.455 152.927 C 459.817 153.513, 460.270 154.806, 460.462 155.801 C 461.287 160.086, 466.570 169.909, 468.818 171.338 C 472.295 173.548, 486 187.789, 486 189.192 C 486 190.069, 486.687 191.050, 487.526 191.372 C 489.016 191.943, 492.788 199.509, 493.573 203.500 C 493.789 204.600, 494.226 206.700, 494.544 208.166 C 494.960 210.086, 494.615 211.157, 493.311 211.992 C 491.596 213.090, 491.600 213.119, 493.395 212.551 C 495.168 211.990, 495.242 212.356, 494.551 218.226 C 494.145 221.677, 493.664 226.243, 493.483 228.373 C 493.302 230.503, 492.669 232.731, 492.077 233.323 C 491.485 233.915, 491 235.660, 491 237.200 C 491 238.740, 490.044 240.956, 488.875 242.125 C 487.706 243.294, 486.750 245.428, 486.750 246.868 C 486.750 248.309, 485.939 250.055, 484.948 250.749 C 483.957 251.443, 481.876 254.523, 480.323 257.594 C 478.770 260.665, 476.262 263.910, 474.750 264.805 C 473.238 265.699, 472 267.177, 472 268.088 C 472 269.705, 465.507 276, 463.839 276 C 463.377 276, 463 276.686, 463 277.525 C 463 278.363, 461.988 279.494, 460.750 280.037 C 459.512 280.580, 456.962 281.952, 455.083 283.085 C 453.204 284.219, 450.841 284.930, 449.833 284.667 C 448.825 284.403, 448 284.620, 448 285.150 C 448 285.679, 445.863 287.024, 443.250 288.138 C 440.637 289.252, 437.086 290.800, 435.358 291.578 C 433.300 292.504, 430.540 292.792, 427.358 292.413 C 423.553 291.960, 422.825 292.087, 424 292.997 C 425.156 293.892, 423.664 293.999, 417.500 293.466 C 413.100 293.086, 408.150 292.697, 406.500 292.603 C 400.280 292.247, 387 281.589, 387 276.953 C 387 275.864, 386.438 274.065, 385.750 272.956 C 384.762 271.361, 384.758 270.778, 385.732 270.172 C 386.409 269.750, 386.772 268.414, 386.539 267.202 C 386.306 265.991, 386.484 265, 386.936 265 C 387.388 265, 388.325 263.630, 389.019 261.955 C 389.729 260.240, 391.639 258.283, 393.390 257.475 C 395.100 256.686, 397.175 255.629, 398 255.125 C 402.227 252.547, 409.708 252.376, 418.961 254.646 C 424.014 255.886, 430.135 257.198, 432.564 257.562 C 434.992 257.926, 436.790 258.531, 436.557 258.907 C 436.033 259.756, 444.490 258.584, 452.545 256.692 C 458.078 255.393, 462.738 253.437, 464 251.885 C 464.275 251.546, 465.456 250.972, 466.624 250.607 C 467.792 250.243, 471.290 247.145, 474.398 243.723 C 477.506 240.300, 480.886 236.600, 481.909 235.500 C 482.933 234.400, 484.321 231.475, 484.995 229 C 485.669 226.525, 486.666 223.545, 487.211 222.378 C 488.754 219.072, 488.948 207.830, 487.511 205 C 486.812 203.625, 485.910 200.925, 485.505 199 C 484.776 195.528, 480.915 190.129, 474.063 183 C 465.983 174.593, 462.225 168.812, 458.460 159 C 455.251 150.638, 454.702 146.172, 454.644 127.936 C 454.609 116.922, 454.873 114.857, 456.786 111.186 L 458.968 107 263.984 107 L 69 107 69 164.500 M 295 183.878 C 295 184.360, 295.675 185.315, 296.500 186 C 298.128 187.351, 298.332 187.028, 297.393 184.582 C 296.750 182.907, 295 182.392, 295 183.878 M 280.052 187.869 C 280.023 189.172, 278.401 192.871, 276.446 196.088 C 273.325 201.226, 272.841 202.921, 272.470 210.013 C 272.223 214.751, 272.426 217.855, 272.963 217.523 C 273.466 217.212, 274.301 217.715, 274.818 218.640 C 275.537 219.924, 275.773 219.393, 275.814 216.400 C 275.873 212.115, 277.689 206.355, 278.671 207.338 C 279.009 207.676, 279.382 210.551, 279.499 213.726 C 279.919 225.086, 279.848 224.785, 281.576 222.500 C 282.427 221.376, 282.845 219.527, 282.532 218.277 C 282.116 216.615, 282.341 216.194, 283.424 216.609 C 284.222 216.915, 284.629 217.803, 284.330 218.583 C 284.031 219.362, 284.343 220, 285.025 220 C 285.893 220, 286.103 218.803, 285.727 216 C 285.317 212.941, 285.528 212, 286.627 212 C 288.155 212, 289.136 213.813, 289.513 217.338 C 289.953 221.443, 290.286 221.486, 290.892 217.515 L 291.500 213.530 293.824 216.015 C 295.102 217.382, 296.061 218.050, 295.955 217.500 C 295.467 214.959, 296.090 213.821, 297.642 214.416 C 299.069 214.964, 299.208 214.420, 298.706 210.273 C 298.388 207.648, 297.126 203.107, 295.902 200.182 C 294.022 195.690, 293.348 194.947, 291.557 195.396 C 290.119 195.757, 289.030 195.278, 288.176 193.910 C 287.352 192.591, 286.279 192.094, 285.077 192.476 C 283.654 192.927, 282.883 192.204, 281.670 189.280 C 280.391 186.193, 280.094 185.935, 280.052 187.869 M 258.128 192.565 C 256.972 194.033, 256.296 195.670, 256.624 196.201 C 256.952 196.732, 258.095 195.728, 259.164 193.970 C 261.610 189.948, 260.921 189.014, 258.128 192.565 M 306.514 192.978 C 306.211 193.468, 304.463 193.625, 302.630 193.327 C 298.164 192.603, 297.761 194.121, 300.490 201.396 C 301.979 205.366, 302.967 206.863, 303.512 205.980 C 304.132 204.977, 304.816 205.246, 306.412 207.116 C 307.560 208.463, 309.362 210.225, 310.416 211.032 C 312.228 212.421, 312.292 212.338, 311.589 209.500 C 311.180 207.850, 310.269 205.150, 309.563 203.500 C 305.665 194.380, 305.558 194, 306.883 194 C 307.369 194, 308.002 194.900, 308.290 196 C 308.577 197.100, 309.417 197.964, 310.156 197.921 C 311.018 197.870, 311.090 197.674, 310.356 197.373 C 309.727 197.115, 309.426 196.088, 309.687 195.090 C 310.185 193.186, 307.493 191.394, 306.514 192.978 M 269.176 195.750 C 266.269 203.248, 264.799 209.036, 264.453 214.343 C 264.127 219.336, 264.281 220.012, 265.509 218.992 C 266.300 218.336, 267.207 216.157, 267.525 214.150 C 267.842 212.142, 268.773 207.632, 269.594 204.126 C 270.414 200.620, 270.857 197.523, 270.578 197.244 C 270.299 196.965, 270.520 195.896, 271.070 194.869 C 271.641 193.803, 271.678 193, 271.157 193 C 270.654 193, 269.763 194.238, 269.176 195.750 M 312 193.815 C 312 194.229, 313.494 196.886, 315.319 199.719 C 317.144 202.552, 319.471 206.718, 320.489 208.977 C 321.610 211.461, 322.848 212.889, 323.624 212.591 C 324.403 212.292, 325.396 213.454, 326.154 215.549 C 326.840 217.447, 327.810 219, 328.308 219 C 328.806 219, 328.889 218.213, 328.492 217.250 C 328.095 216.287, 327.432 214.095, 327.019 212.378 C 325.669 206.761, 321.774 199.942, 320.514 200.988 C 319.717 201.650, 318.620 200.737, 316.933 198.009 C 314.670 194.352, 312 192.081, 312 193.815 M 261.843 200.219 C 258.444 205.651, 256.644 211.044, 257.833 212.233 C 258.563 212.963, 259.323 213.044, 259.861 212.450 C 260.781 211.435, 264.098 198.765, 263.580 198.246 C 263.410 198.077, 262.629 198.964, 261.843 200.219 M 251.272 202.746 C 248.384 205.444, 244 212.807, 244 214.960 C 244 216.928, 245.681 215.995, 246.881 213.361 C 247.543 211.909, 249.129 209.900, 250.407 208.895 C 252.752 207.050, 255.691 201.357, 254.772 200.439 C 254.498 200.165, 252.924 201.203, 251.272 202.746 M 328.224 202.744 C 327.493 204.873, 327.728 206.398, 329.259 209.445 L 331.240 213.390 332.641 210.715 C 333.846 208.417, 333.843 207.560, 332.624 204.642 C 330.698 200.034, 329.354 199.454, 328.224 202.744 M 303.801 250.124 C 304.975 251.171, 313 251.869, 313 250.924 C 313 250.437, 311.988 249.815, 310.750 249.543 C 307.837 248.903, 302.895 249.315, 303.801 250.124 M 287.637 253.143 C 286.613 253.739, 284.909 255.091, 283.851 256.149 C 281.677 258.323, 280 257.812, 280 254.977 C 280 253.264, 279.220 253.075, 272.282 253.112 C 268.036 253.134, 264.202 253.375, 263.760 253.648 C 263.319 253.921, 264.767 256.200, 266.979 258.713 C 269.744 261.855, 271 264.208, 271 266.249 C 271 268.951, 270.765 269.158, 268.382 268.560 C 266.605 268.114, 265.174 268.438, 263.923 269.570 C 262.910 270.486, 260.048 271.466, 257.562 271.746 C 253.312 272.225, 253.003 272.466, 252.378 275.797 C 251.401 281.005, 252.707 299.716, 254.456 305.571 C 255.565 309.283, 257.295 311.895, 260.913 315.321 C 263.632 317.894, 266.174 320, 266.562 320 C 267.304 320, 266.499 308.312, 265.459 303.975 C 264.927 301.761, 265.355 301.228, 268.929 299.652 C 272.068 298.267, 274.969 297.928, 281.549 298.177 C 291.851 298.567, 291.442 299.272, 290.810 282.198 C 290.389 270.800, 289.532 267.389, 286.270 264.127 C 284.366 262.223, 285.431 258.076, 288.538 255.298 C 292.123 252.091, 291.600 250.840, 287.637 253.143 M 317.193 256.750 C 316.498 257.988, 315.209 259, 314.329 259 C 313 259, 312.836 259.788, 313.364 263.640 C 313.714 266.191, 314 269.666, 314 271.362 C 314 274.411, 314.017 274.421, 315.526 272.267 C 317.246 269.811, 319.297 260.021, 318.790 256.690 L 318.456 254.500 317.193 256.750 M 301.951 260.559 C 300.991 261.716, 299.670 261.951, 296.829 261.471 C 294.340 261.051, 293 261.205, 293 261.912 C 293 263.930, 301.518 263.190, 303.500 261 C 304.495 259.900, 304.845 259, 304.277 259 C 303.710 259, 302.663 259.702, 301.951 260.559 M 249.704 266.774 C 251.633 268.187, 258.831 268.070, 258 266.639 C 257.725 266.166, 255.342 265.707, 252.704 265.619 C 248.515 265.479, 248.135 265.626, 249.704 266.774 M 300.500 266.964 L 295.500 268.678 295.478 274.589 C 295.466 277.840, 295.741 285.675, 296.090 292 C 296.466 298.813, 296.330 304.268, 295.755 305.384 C 295.186 306.492, 295.071 310.697, 295.478 315.582 L 296.171 323.896 300.835 320.627 C 305.382 317.442, 305.544 317.145, 307.237 308.929 C 309.433 298.270, 310.488 274.526, 309.009 269.034 C 307.807 264.568, 307.620 264.523, 300.500 266.964 M 127 267.924 C 124.525 268.298, 120.925 269.461, 119 270.508 C 117.075 271.555, 115.216 272.337, 114.869 272.245 C 113.677 271.932, 110.912 275.757, 110.437 278.377 C 109.163 285.401, 109.278 287.081, 111.121 288.372 C 112.147 289.091, 112.690 289.977, 112.327 290.340 C 111.964 290.703, 112.218 291, 112.892 291 C 113.566 291, 113.840 291.450, 113.500 292 C 113.160 292.550, 113.771 293, 114.858 293 C 115.944 293, 117.040 293.563, 117.292 294.250 C 117.658 295.250, 118.015 295.250, 119.075 294.250 C 120.818 292.605, 121.528 292.671, 123.519 294.662 C 124.924 296.067, 125.320 296.106, 126.075 294.912 C 126.810 293.752, 126.972 293.744, 126.985 294.867 C 127 296.216, 128.338 296.112, 132.414 294.444 C 133.763 293.891, 134.115 294.006, 133.605 294.830 C 133.167 295.539, 133.519 296, 134.500 296 C 135.390 296, 135.842 295.553, 135.504 295.006 C 135.112 294.372, 137.262 294.155, 141.442 294.407 C 145.177 294.631, 147.755 294.413, 147.438 293.900 C 147.132 293.405, 147.557 293, 148.382 293 C 149.207 293, 150.174 293.472, 150.530 294.049 C 150.976 294.770, 151.604 294.744, 152.541 293.966 C 153.291 293.344, 154.847 293.134, 156 293.500 C 157.210 293.884, 158.791 293.602, 159.740 292.833 C 161.113 291.720, 161.250 291.722, 160.574 292.846 C 159.989 293.817, 160.283 294.088, 161.632 293.817 C 162.659 293.611, 164.337 294.210, 165.360 295.148 C 166.383 296.086, 167.787 296.635, 168.481 296.369 C 169.175 296.103, 170.443 296.586, 171.300 297.442 C 172.156 298.299, 173.339 299, 173.929 299 C 174.518 299, 175 299.395, 175 299.879 C 175 300.362, 176.373 301.326, 178.052 302.022 C 179.920 302.795, 180.904 303.807, 180.588 304.630 C 180.299 305.386, 181.128 306.527, 182.483 307.237 C 185.285 308.705, 185.713 309.933, 183.835 311.123 C 182.837 311.756, 182.815 311.973, 183.750 311.985 C 184.438 311.993, 185.014 313.012, 185.032 314.250 C 185.066 316.648, 187.616 320.717, 188.519 319.814 C 189.155 319.178, 189.182 314.914, 188.582 310 C 188.346 308.075, 188.119 306.174, 188.077 305.776 C 188.035 305.377, 186.703 304.381, 185.117 303.561 C 183.532 302.741, 181.973 301.028, 181.654 299.756 C 181.334 298.483, 179.706 295.911, 178.036 294.041 C 176.366 292.170, 175 289.779, 175 288.726 C 175 287.654, 174.121 286.583, 173 286.290 C 171.900 286.002, 171 285.363, 171 284.869 C 171 283.647, 164.776 278.066, 163.372 278.029 C 162.752 278.013, 161.689 277.330, 161.009 276.511 C 160.329 275.692, 159.393 275.257, 158.927 275.545 C 158.462 275.832, 157.276 275.669, 156.291 275.181 C 141.968 268.088, 135.883 266.581, 127 267.924 M 242 274.941 C 242 275.459, 242.450 276.160, 243 276.500 C 243.550 276.840, 244.006 279.229, 244.014 281.809 C 244.021 284.389, 244.299 287.512, 244.630 288.750 C 245.812 293.161, 247 290.892, 247 284.222 C 247 278.669, 246.637 277.133, 244.989 275.722 C 242.710 273.771, 242 273.585, 242 274.941 M 315.593 279.209 C 314.599 284.103, 314.122 294.957, 314.880 295.426 C 315.319 295.697, 315.752 293.979, 315.842 291.608 C 315.932 289.237, 316.397 285.197, 316.877 282.630 C 317.356 280.063, 317.368 277.728, 316.904 277.440 C 316.439 277.153, 315.849 277.949, 315.593 279.209 M 269 288.066 C 269 292.165, 276.116 295.782, 278.450 292.868 C 279.053 292.116, 280.384 291.034, 281.408 290.464 C 282.432 289.894, 283.227 288.994, 283.174 288.464 C 283.042 287.119, 279.141 286.646, 277.695 287.800 C 277.029 288.331, 275.614 288.396, 274.500 287.947 C 271.603 286.779, 269 286.835, 269 288.066 M 314.202 301.934 C 314.079 303.548, 314.433 305.150, 314.989 305.493 C 315.545 305.837, 316.034 305.304, 316.077 304.309 C 316.119 303.314, 316.304 301.712, 316.488 300.750 C 316.672 299.788, 316.284 299, 315.624 299 C 314.965 299, 314.325 300.320, 314.202 301.934 M 283.875 311.627 C 279.256 313.044, 279.249 313.052, 278.746 318.273 C 277.980 326.224, 279.020 328, 284.440 328 C 287.855 328, 289.177 327.537, 289.965 326.066 C 291.087 323.969, 291.377 314.147, 290.393 311.582 C 289.696 309.765, 289.952 309.763, 283.875 311.627 M 187.992 325.250 C 188.107 332.013, 187.280 343.296, 186.491 345.750 C 186.065 347.074, 186.182 348, 186.775 348 C 187.827 348, 189.154 344.286, 189.634 340 C 189.788 338.625, 190.115 336.600, 190.362 335.500 C 190.608 334.400, 190.460 332.600, 190.033 331.500 C 189.557 330.276, 189.813 328.405, 190.691 326.678 C 191.806 324.485, 191.862 323.538, 190.940 322.428 C 188.879 319.945, 187.918 320.865, 187.992 325.250 M 312.871 325.750 C 312.707 329.226, 312.742 336.368, 312.997 351.210 C 313.145 359.835, 313.567 363.226, 314.599 364.082 C 316.295 365.489, 316.246 366.108, 316.168 344.287 C 316.135 335.026, 315.661 327.235, 315.063 326.117 C 314.294 324.680, 314.345 324.028, 315.258 323.660 C 315.990 323.364, 315.782 323.126, 314.750 323.079 C 313.517 323.023, 312.962 323.813, 312.871 325.750 M 296 331.969 C 296 332.501, 295.324 332.678, 294.498 332.361 C 293.672 332.044, 291.872 332.066, 290.498 332.411 C 287.325 333.207, 286.963 337.496, 290.001 338.290 C 291.102 338.578, 291.782 338.457, 291.513 338.020 C 291.243 337.584, 291.917 336.993, 293.011 336.707 C 294.270 336.378, 295 336.682, 295 337.535 C 295 339.238, 293.085 340.500, 290.500 340.500 C 288.608 340.500, 288.503 341.150, 288.549 352.500 C 288.608 367.100, 289.589 377.128, 291.044 378.027 C 291.641 378.396, 293.183 378.496, 294.472 378.250 C 296.190 377.922, 296.980 376.922, 297.434 374.498 C 297.775 372.680, 298.775 370.917, 299.655 370.579 C 301.057 370.041, 301.157 368.575, 300.464 358.732 C 300.030 352.555, 299.635 345.796, 299.587 343.714 C 299.538 341.562, 298.852 339.479, 298 338.888 C 296.872 338.106, 296.810 337.722, 297.750 337.341 C 299.583 336.597, 299.362 331, 297.500 331 C 296.675 331, 296 331.436, 296 331.969 M 306.104 333.500 C 305.320 337.903, 304.989 355.982, 305.639 358.877 C 306.308 361.851, 306.547 360.710, 306.977 352.500 C 307.406 344.293, 306.745 329.899, 306.104 333.500 M 277.124 349.539 C 276.467 358.085, 276.164 365.456, 276.450 365.919 C 276.736 366.382, 278.006 366.959, 279.273 367.201 C 281.573 367.641, 281.575 367.632, 281.810 354.321 C 281.940 346.994, 281.676 341, 281.224 341 C 280.771 341, 280.585 339.425, 280.810 337.500 C 281.111 334.921, 280.837 334, 279.768 334 C 278.614 334, 278.074 337.177, 277.124 349.539 M 267.250 347.668 C 262.739 352.351, 262 353.669, 262 357.033 C 262 360.358, 262.445 361.179, 264.950 362.474 C 269.312 364.730, 270.668 364.371, 271.469 360.750 C 272.232 357.301, 273.340 341.924, 272.812 342.109 C 272.640 342.169, 270.137 344.671, 267.250 347.668 M 181.548 355.907 C 180.668 357.608, 180.338 359, 180.814 359 C 181.828 359, 184.292 353.959, 183.611 353.278 C 183.356 353.023, 182.428 354.206, 181.548 355.907 M 262 371.500 L 262 378 265.283 378 C 268.524 378, 268.568 377.937, 268.782 373.025 C 268.981 368.433, 268.771 367.933, 266.049 366.525 C 264.427 365.686, 262.852 365, 262.550 365 C 262.247 365, 262 367.925, 262 371.500 M 274.755 370.746 C 274.553 371.161, 274.266 372.962, 274.118 374.750 C 273.835 378.173, 273.850 378.182, 280 378.182 C 284.680 378.182, 285 378.085, 285 376.674 C 285 373.727, 275.876 368.448, 274.755 370.746 M 305.061 372.339 C 303.121 374.279, 303.826 377.736, 306.250 378.172 C 311.365 379.093, 313.446 376.838, 311.022 373 C 309.897 371.217, 306.553 370.847, 305.061 372.339 M 166.919 423.250 C 166.454 424.679, 166.587 429, 167.095 429 C 168.506 429, 170.003 426.172, 169.410 424.627 C 168.893 423.278, 167.211 422.349, 166.919 423.250 M 111.500 425 C 111.160 425.550, 111.303 426, 111.817 426 C 112.354 426, 112.181 428.662, 111.411 432.250 C 109.645 440.482, 109.674 441.218, 111.750 440.764 C 112.713 440.553, 113.386 439.842, 113.247 439.183 C 113.027 438.135, 113.722 434.188, 115.527 426.250 C 115.923 424.508, 115.596 424, 114.078 424 C 113 424, 111.840 424.450, 111.500 425 M 276.075 425.250 C 276.497 428.505, 275.867 430, 274.073 430 C 271.607 430, 268 434.553, 268 437.666 C 268 440.372, 270.553 441.847, 272.267 440.133 C 273.111 439.289, 273.094 439, 272.200 439 C 270.727 439, 270.633 435.554, 272.035 432.934 C 272.605 431.870, 273.736 431, 274.549 431 C 275.852 431, 275.853 431.417, 274.554 434.525 C 273.744 436.463, 273.345 438.735, 273.667 439.574 C 274.343 441.336, 277.626 440.978, 277.247 439.183 C 277.027 438.135, 277.722 434.188, 279.527 426.250 C 279.929 424.479, 279.599 424, 277.975 424 C 276.841 424, 275.985 424.563, 276.075 425.250 M 319.340 424.795 C 315.080 425, 313.007 425.540, 312.621 426.545 C 311.941 428.317, 312.438 428.368, 314.968 426.788 C 316.036 426.121, 317.153 425.820, 317.452 426.119 C 318.233 426.899, 316.010 438.264, 314.785 439.750 C 314.001 440.702, 314.478 441, 316.784 441 C 319.269 441, 319.723 440.658, 319.315 439.097 C 319.042 438.051, 319.341 434.676, 319.980 431.597 C 320.884 427.242, 321.551 426, 322.988 426 C 324.003 426, 325.034 426.563, 325.280 427.250 C 325.525 427.938, 326.054 428.196, 326.455 427.825 C 326.855 427.454, 326.805 426.554, 326.342 425.825 C 325.755 424.902, 323.632 424.590, 319.340 424.795 M 328.941 424.250 C 328.909 424.387, 328.744 426.075, 328.575 428 C 328.407 429.925, 327.932 433.637, 327.521 436.250 C 326.995 439.586, 327.114 441, 327.918 441 C 328.548 441, 329.306 440.212, 329.604 439.250 C 329.902 438.288, 330.556 436.730, 331.057 435.790 C 331.558 434.849, 331.717 433.427, 331.412 432.630 C 331.106 431.834, 331.302 429.566, 331.847 427.591 C 332.736 424.373, 332.640 424, 330.919 424 C 329.864 424, 328.973 424.113, 328.941 424.250 M 448.923 424.250 C 448.881 424.387, 448.730 425.850, 448.588 427.500 C 448.445 429.150, 447.972 432.863, 447.536 435.750 L 446.742 441 449.697 441 C 454.249 441, 457.607 436.587, 457.115 431.250 C 457.052 430.563, 456.190 430, 455.200 430 C 454.210 430, 452.837 430.563, 452.149 431.250 C 451.147 432.251, 451.033 431.652, 451.577 428.250 C 452.142 424.713, 451.983 424, 450.628 424 C 449.733 424, 448.965 424.113, 448.923 424.250 M 87.082 431.250 C 85.222 434.688, 83.024 438.288, 82.196 439.250 C 80.816 440.853, 80.905 441, 83.251 441 C 85.236 441, 85.706 440.590, 85.337 439.180 C 84.746 436.922, 87.412 434.560, 89.601 435.401 C 90.706 435.825, 91.076 436.823, 90.753 438.512 C 90.330 440.724, 90.617 441, 93.339 441 C 95.720 441, 96.133 440.733, 95.200 439.800 C 94.540 439.140, 94 437.812, 94 436.849 C 94 433.850, 91.870 425, 91.148 425 C 90.770 425, 88.941 427.813, 87.082 431.250 M 159.363 425.779 C 159.917 426.675, 157.670 438.108, 156.598 439.841 C 156.120 440.615, 156.815 440.997, 158.691 440.992 C 161.433 440.984, 161.503 440.844, 161.631 435.148 C 161.703 431.939, 162.282 428.342, 162.916 427.156 C 163.960 425.205, 163.823 425, 161.476 425 C 160.049 425, 159.099 425.350, 159.363 425.779 M 288 426.583 C 288 428.349, 290.153 428.042, 290.771 426.188 C 290.989 425.534, 290.454 425, 289.583 425 C 288.712 425, 288 425.712, 288 426.583 M 342 426.583 C 342 427.454, 342.534 427.989, 343.188 427.771 C 345.042 427.153, 345.349 425, 343.583 425 C 342.712 425, 342 425.712, 342 426.583 M 378 426.583 C 378 428.349, 380.153 428.042, 380.771 426.188 C 380.989 425.534, 380.454 425, 379.583 425 C 378.712 425, 378 425.712, 378 426.583 M 98.762 428.965 C 97.836 430.046, 97.464 431.169, 97.935 431.460 C 98.410 431.753, 98.403 433.665, 97.920 435.745 C 97.440 437.810, 97.037 439.837, 97.024 440.250 C 96.988 441.373, 101.787 441.154, 102.500 440 C 102.840 439.450, 102.428 439, 101.584 439 C 99.590 439, 100.531 433.071, 102.815 431.250 C 103.763 430.494, 103.912 430, 103.191 430 C 102.536 430, 102 429.325, 102 428.500 C 102 426.443, 100.770 426.620, 98.762 428.965 M 138.972 428.772 C 138.163 429.746, 137.402 432.896, 137.282 435.772 C 137.100 440.137, 137.348 440.997, 138.782 440.985 C 139.727 440.976, 141.175 440.533, 142 440 C 143.268 439.180, 143.218 439.028, 141.671 439.015 C 140.137 439.002, 139.950 438.475, 140.514 435.750 C 140.884 433.962, 141.906 431.938, 142.785 431.250 C 143.730 430.510, 143.896 430, 143.191 430 C 142.536 430, 142 429.325, 142 428.500 C 142 426.495, 140.772 426.605, 138.972 428.772 M 230.732 429 C 229.790 430.100, 229.399 431, 229.863 431 C 230.327 431, 230.490 433.250, 230.226 436 C 229.789 440.543, 229.935 441, 231.814 441 C 232.951 441, 234.160 440.550, 234.500 440 C 234.840 439.450, 234.464 439, 233.664 439 C 232.508 439, 232.379 438.254, 233.033 435.354 C 233.485 433.348, 234.450 431.330, 235.178 430.869 C 236.177 430.236, 236.194 430.027, 235.250 430.015 C 234.563 430.007, 234 429.325, 234 428.500 C 234 426.434, 232.768 426.622, 230.732 429 M 293.785 428.938 C 292.873 430.003, 292.573 431.024, 293.120 431.207 C 293.773 431.424, 293.783 433.012, 293.148 435.835 C 292.099 440.505, 293.247 441.977, 296.750 440.452 C 298.256 439.797, 298.281 439.637, 296.929 439.306 C 294.906 438.812, 295.528 433.039, 297.797 431.250 C 298.744 430.503, 298.902 430, 298.191 430 C 297.536 430, 297 429.325, 297 428.500 C 297 426.451, 295.772 426.618, 293.785 428.938 M 494.785 428.938 C 493.873 430.003, 493.512 431.016, 493.983 431.188 C 494.454 431.359, 494.480 433.447, 494.040 435.827 C 493.175 440.508, 494.326 441.943, 497.750 440.452 C 499.256 439.797, 499.281 439.637, 497.929 439.306 C 495.906 438.812, 496.528 433.039, 498.797 431.250 C 499.744 430.503, 499.902 430, 499.191 430 C 498.536 430, 498 429.325, 498 428.500 C 498 426.451, 496.772 426.618, 494.785 428.938 M 88 432 C 87.100 433.681, 87.240 434, 88.871 434 C 90.320 434, 90.680 433.493, 90.290 432 C 90.002 430.900, 89.610 430, 89.419 430 C 89.227 430, 88.589 430.900, 88 432 M 118.073 432.635 C 116.933 434.084, 116 436.348, 116 437.666 C 116 440.372, 118.553 441.847, 120.267 440.133 C 121.111 439.289, 121.094 439, 120.200 439 C 118.550 439, 118.689 434.807, 120.418 432.443 C 122.415 429.713, 123.636 431.478, 122.264 435.111 C 120.937 438.627, 121.605 441.229, 123.725 440.799 C 124.730 440.595, 125.327 438.834, 125.605 435.250 C 126.011 430.017, 126.003 430, 123.079 430 C 121.101 430, 119.470 430.858, 118.073 432.635 M 129.667 430.667 C 128.381 431.953, 129.019 434.707, 131.024 436.521 C 133.450 438.718, 132.041 441.109, 129.542 439.035 C 128.260 437.971, 128 438.029, 128 439.378 C 128 440.310, 128.815 441, 129.918 441 C 135.112 441, 136.635 437.789, 133 434.500 C 130.267 432.026, 130.489 430.655, 133.500 431.411 C 134.942 431.772, 136 431.607, 136 431.019 C 136 429.896, 130.730 429.603, 129.667 430.667 M 170 431.001 C 169.175 431.534, 169.007 431.976, 169.627 431.985 C 170.370 431.995, 170.582 433.533, 170.247 436.500 C 169.799 440.472, 169.969 441, 171.696 441 C 173.753 441, 176.980 437.995, 178.875 434.316 C 180.405 431.345, 180.288 430, 178.500 430 C 177.538 430, 176.989 430.986, 176.968 432.750 C 176.937 435.434, 174.995 439, 173.563 439 C 173.169 439, 172.983 437.121, 173.149 434.825 C 173.463 430.475, 172.544 429.359, 170 431.001 M 182.807 431.750 C 179.157 436, 180.059 441, 184.476 441 C 187.592 441, 188.696 439.241, 185.843 438.821 C 182.538 438.336, 182.612 436.585, 185.991 435.310 C 189.799 433.872, 190.283 430, 186.655 430 C 185.365 430, 183.634 430.788, 182.807 431.750 M 197.807 431.750 C 193.156 437.166, 196.571 443.796, 202 439.890 C 203.284 438.967, 203.259 438.888, 201.823 439.346 C 199.427 440.110, 197.793 437.672, 198.586 434.515 C 199.368 431.399, 201.810 430.090, 203.086 432.104 C 203.793 433.221, 203.972 433.151, 203.985 431.750 C 203.995 430.576, 203.227 430, 201.655 430 C 200.365 430, 198.634 430.788, 197.807 431.750 M 207.174 432.314 C 204.308 435.365, 204.157 441, 206.941 441 C 208.009 441, 209.190 440.502, 209.566 439.893 C 210.062 439.090, 210.444 439.100, 210.955 439.927 C 212.540 442.491, 214.503 439.885, 214.680 434.980 C 214.855 430.168, 214.768 430, 212.105 430 C 210.517 430, 208.427 430.981, 207.174 432.314 M 218.244 430.664 C 217.553 430.943, 217.261 431.613, 217.594 432.153 C 217.928 432.693, 217.651 436.049, 216.979 439.612 C 216.307 443.175, 215.972 446.305, 216.235 446.568 C 217.390 447.723, 219.744 445.736, 219.288 443.991 C 218.917 442.575, 219.663 441.750, 222.318 440.641 C 224.254 439.831, 226.325 438.261, 226.920 437.150 C 229.523 432.285, 226.892 428.338, 222.763 430.916 C 221.616 431.632, 221.068 431.698, 221.454 431.074 C 222.135 429.973, 220.482 429.762, 218.244 430.664 M 238 431 C 237.175 431.533, 237.015 431.976, 237.645 431.985 C 238.448 431.995, 238.541 433.103, 237.956 435.695 C 236.724 441.156, 238.485 442.681, 242.171 439.345 C 243.873 437.805, 244 437.805, 244 439.345 C 244 440.255, 244.338 440.993, 244.750 440.985 C 246.649 440.946, 247.519 439.134, 247.742 434.750 C 247.929 431.097, 247.640 430, 246.492 430 C 245.672 430, 245 430.875, 245 431.944 C 245 433.014, 243.867 435.151, 242.482 436.694 L 239.964 439.500 240.575 436.500 C 240.911 434.850, 241.399 432.712, 241.660 431.750 C 242.184 429.819, 240.395 429.452, 238 431 M 251.500 430.765 C 249.986 431.877, 249.708 441.264, 251.203 440.766 C 251.866 440.545, 252.764 438.989, 253.200 437.308 C 253.963 434.362, 256.700 431.155, 257.879 431.825 C 258.193 432.004, 258.611 431.666, 258.808 431.075 C 259.294 429.619, 256.691 429.709, 255.200 431.200 C 254.267 432.133, 254 432.133, 254 431.200 C 254 429.848, 252.988 429.672, 251.500 430.765 M 260.807 431.750 C 257.157 436, 258.059 441, 262.476 441 C 265.592 441, 266.696 439.241, 263.843 438.821 C 261.446 438.469, 260.003 436, 262.194 436 C 264.562 436, 267.948 433.027, 267.351 431.473 C 266.576 429.452, 262.637 429.619, 260.807 431.750 M 287.500 430.765 C 286.950 431.169, 286.361 433.676, 286.191 436.335 C 285.931 440.398, 286.146 441.116, 287.540 440.835 C 288.764 440.588, 289.304 439.125, 289.605 435.250 C 290.001 430.151, 289.574 429.242, 287.500 430.765 M 332.981 431.523 C 331.932 432.787, 331.980 432.945, 333.269 432.450 C 334.606 431.937, 334.689 432.436, 333.875 436.060 C 332.769 440.985, 333.176 441.702, 336.240 440.225 C 337.483 439.626, 337.993 439.105, 337.373 439.068 C 336.633 439.023, 336.420 437.452, 336.753 434.500 C 337.155 430.932, 336.948 430, 335.752 430 C 334.923 430, 333.676 430.685, 332.981 431.523 M 340.935 430.250 C 340.294 432.732, 340.112 440.996, 340.700 440.985 C 342.650 440.947, 343.517 439.171, 343.742 434.750 C 343.929 431.097, 343.640 430, 342.492 430 C 341.672 430, 340.971 430.113, 340.935 430.250 M 347.667 430.667 C 346.381 431.953, 347.019 434.707, 349.024 436.521 C 351.393 438.666, 350.067 441.130, 347.631 439.109 C 346.635 438.282, 345.973 438.235, 345.526 438.959 C 344.757 440.202, 347.157 441.312, 349.584 440.835 C 350.520 440.651, 351.769 439.733, 352.359 438.795 C 353.201 437.459, 352.953 436.579, 351.217 434.730 C 348.305 431.632, 348.416 430.637, 351.584 431.432 C 353.259 431.852, 353.942 431.715, 353.525 431.040 C 352.811 429.885, 348.709 429.624, 347.667 430.667 M 376.882 430.750 C 376.816 431.163, 376.828 431.872, 376.907 432.327 C 376.987 432.782, 376.627 434.691, 376.108 436.569 C 375.137 440.089, 375.822 441.396, 378.160 440.483 C 380.107 439.723, 380.358 430, 378.430 430 C 377.644 430, 376.947 430.337, 376.882 430.750 M 383.093 431.388 C 382.192 432.474, 382.510 433.453, 384.558 435.886 C 386.869 438.633, 386.978 439.071, 385.486 439.644 C 384.518 440.015, 383.438 439.709, 382.953 438.925 C 382.489 438.173, 381.777 437.890, 381.371 438.296 C 380.161 439.506, 382.597 441.195, 385.033 440.835 C 388.807 440.276, 389.806 437.486, 387.217 434.730 C 384.466 431.803, 384.391 430.607, 387 431.290 C 388.100 431.577, 389 431.405, 389 430.906 C 389 429.474, 384.368 429.852, 383.093 431.388 M 397 431 C 396.175 431.533, 396.015 431.976, 396.645 431.985 C 397.448 431.995, 397.541 433.103, 396.956 435.695 C 395.724 441.156, 397.485 442.681, 401.171 439.345 C 403.269 437.447, 403.462 438.375, 401.902 442.851 C 400.748 446.162, 399.203 446.803, 397.200 444.800 C 396.267 443.867, 396 443.978, 396 445.300 C 396 446.409, 396.802 447, 398.309 447 C 402.273 447, 404.096 444.722, 405.546 437.954 C 407.289 429.825, 407.290 430, 405.500 430 C 404.675 430, 404 430.875, 404 431.944 C 404 433.014, 402.867 435.151, 401.482 436.694 L 398.964 439.500 399.575 436.500 C 399.911 434.850, 400.399 432.712, 400.660 431.750 C 401.184 429.819, 399.395 429.452, 397 431 M 410 432 C 406.634 435.366, 407.640 441, 411.607 441 C 414.644 441, 418 437.693, 418 434.700 C 418 429.999, 413.514 428.486, 410 432 M 420 431 C 419.175 431.533, 419.007 431.976, 419.627 431.985 C 420.370 431.995, 420.582 433.533, 420.247 436.500 C 419.845 440.068, 420.052 441, 421.248 441 C 422.077 441, 423.324 440.315, 424.019 439.477 C 425.068 438.213, 425.019 438.055, 423.730 438.550 C 422.405 439.058, 422.308 438.585, 423.065 435.323 C 423.553 433.220, 423.963 431.163, 423.976 430.750 C 424.009 429.702, 421.793 429.841, 420 431 M 427.396 431.750 C 427.098 432.712, 426.465 434.236, 425.990 435.135 C 425.104 436.813, 425.733 441.012, 426.867 440.985 C 428.637 440.942, 429.529 439.048, 429.800 434.750 C 430.097 430.048, 428.528 428.091, 427.396 431.750 M 433 431 C 432.175 431.533, 432.015 431.976, 432.645 431.985 C 433.455 431.996, 433.535 433.095, 432.919 435.750 C 431.748 440.789, 431.772 441, 433.500 441 C 434.325 441, 435.016 440.212, 435.035 439.250 C 435.055 438.288, 435.681 436.398, 436.427 435.050 C 438.651 431.036, 436.633 428.652, 433 431 M 460.637 431.506 C 458.400 433.743, 457.751 436.665, 458.980 438.962 C 460.128 441.107, 461.637 441.461, 464.668 440.296 C 466.282 439.676, 466.211 439.524, 464.074 439.018 C 460.523 438.179, 460.467 436.381, 463.955 435.166 C 467.848 433.809, 468.302 430, 464.571 430 C 463.236 430, 461.465 430.678, 460.637 431.506 M 470.073 432.635 C 468.933 434.084, 468 436.348, 468 437.666 C 468 440.372, 470.553 441.847, 472.267 440.133 C 473.111 439.289, 473.094 439, 472.200 439 C 470.550 439, 470.689 434.807, 472.418 432.443 C 474.415 429.713, 475.636 431.478, 474.264 435.111 C 472.937 438.627, 473.605 441.229, 475.725 440.799 C 476.730 440.595, 477.327 438.834, 477.605 435.250 C 478.011 430.017, 478.003 430, 475.079 430 C 473.101 430, 471.470 430.858, 470.073 432.635 M 481.137 430.894 C 480.292 431.430, 480.180 431.899, 480.843 432.129 C 481.557 432.377, 481.624 433.767, 481.046 436.316 C 480.361 439.339, 480.490 440.251, 481.668 440.703 C 482.486 441.017, 483.908 440.513, 484.828 439.583 C 486.376 438.017, 486.377 437.938, 484.839 438.519 C 483.383 439.068, 483.287 438.674, 484.065 435.323 C 484.553 433.220, 484.963 431.163, 484.976 430.750 C 485.008 429.743, 482.824 429.825, 481.137 430.894 M 488.396 431.750 C 488.098 432.712, 487.465 434.236, 486.990 435.135 C 486.104 436.813, 486.733 441.012, 487.867 440.985 C 489.637 440.942, 490.529 439.048, 490.800 434.750 C 491.097 430.048, 489.528 428.091, 488.396 431.750 M 502.500 430.580 C 501.011 431.208, 501.316 440.272, 502.843 440.781 C 503.543 441.014, 505.023 440.384, 506.133 439.380 C 508.120 437.581, 508.140 437.598, 507.451 440.527 C 506.422 444.903, 504.508 446.666, 502.550 445.042 C 501.258 443.969, 501 444.025, 501 445.378 C 501 447.363, 504.852 447.560, 507.390 445.704 C 508.418 444.953, 509.744 441.695, 510.546 437.954 C 512.289 429.825, 512.290 430, 510.500 430 C 509.675 430, 509 430.875, 509 431.944 C 509 433.014, 507.867 435.151, 506.482 436.694 L 503.964 439.500 504.575 436.500 C 504.911 434.850, 505.399 432.712, 505.660 431.750 C 506.113 430.079, 504.821 429.600, 502.500 430.580 M 184.667 431.667 C 184.300 432.033, 184 432.988, 184 433.789 C 184 434.970, 184.283 435.010, 185.500 434 C 186.325 433.315, 187 432.360, 187 431.878 C 187 430.842, 185.616 430.717, 184.667 431.667 M 209.200 432.200 C 208.540 432.860, 208 434.756, 208 436.414 C 208 439.046, 208.182 439.243, 209.434 437.964 C 211.177 436.185, 212.573 431, 211.308 431 C 210.809 431, 209.860 431.540, 209.200 432.200 M 262.667 431.667 C 262.300 432.033, 262 432.988, 262 433.789 C 262 434.970, 262.283 435.010, 263.500 434 C 264.325 433.315, 265 432.360, 265 431.878 C 265 430.842, 263.616 430.717, 262.667 431.667 M 412.160 432.240 C 410.913 433.487, 410.576 438.243, 411.658 439.325 C 412.884 440.550, 415 437.771, 415 434.937 C 415 431.683, 413.829 430.571, 412.160 432.240 M 462.667 431.667 C 462.300 432.033, 462 432.988, 462 433.789 C 462 434.970, 462.283 435.010, 463.500 434 C 464.325 433.315, 465 432.360, 465 431.878 C 465 430.842, 463.616 430.717, 462.667 431.667 M 221.305 435.487 C 220.390 437.406, 219.944 439.278, 220.315 439.648 C 221.470 440.804, 225 436.809, 225 434.345 C 225 430.926, 223.217 431.477, 221.305 435.487 M 451.557 434.223 C 449.865 436.638, 449.470 440, 450.878 440 C 452.225 440, 453.766 437.781, 454.528 434.744 C 455.372 431.382, 453.746 431.097, 451.557 434.223 M 145.162 439.750 C 145.321 440.712, 145.097 442.063, 144.666 442.750 C 143.562 444.510, 145.496 444.312, 146.989 442.513 C 148.347 440.877, 147.697 438, 145.969 438 C 145.367 438, 145.004 438.788, 145.162 439.750 M 300 439.500 C 300 440.325, 300.675 441, 301.500 441 C 302.325 441, 303 440.325, 303 439.500 C 303 438.675, 302.325 438, 301.500 438 C 300.675 438, 300 438.675, 300 439.500 M 354.543 438.931 C 353.803 440.128, 355.684 441.313, 357.016 440.490 C 358.135 439.799, 357.400 438, 356 438 C 355.515 438, 354.859 438.419, 354.543 438.931 M 359.543 438.931 C 359.226 439.443, 359.425 440.144, 359.984 440.490 C 361.177 441.227, 363 440.291, 363 438.941 C 363 437.724, 360.293 437.716, 359.543 438.931 M 364.543 438.931 C 364.226 439.443, 364.425 440.144, 364.984 440.490 C 366.177 441.227, 368 440.291, 368 438.941 C 368 437.724, 365.293 437.716, 364.543 438.931 M 513 439.500 C 513 440.325, 513.675 441, 514.500 441 C 515.325 441, 516 440.325, 516 439.500 C 516 438.675, 515.325 438, 514.500 438 C 513.675 438, 513 438.675, 513 439.500 M 278 455 C 276.900 456.100, 276 457.703, 276 458.563 C 276 459.529, 275.295 460.006, 274.154 459.813 C 273.138 459.641, 271.563 460.118, 270.654 460.873 C 269.469 461.855, 269 461.906, 269 461.049 C 269 460.391, 268.280 459.999, 267.401 460.177 C 266.243 460.411, 265.688 461.971, 265.388 465.838 C 264.923 471.839, 266.789 472.754, 268.221 467.227 C 269.039 464.070, 272.283 461, 274.802 461 C 275.802 461, 275.985 461.855, 275.497 464.250 C 273.837 472.408, 272.874 474.878, 271.230 475.204 C 269.970 475.454, 269.837 475.759, 270.742 476.327 C 272.963 477.723, 276.778 472.689, 277.526 467.376 C 277.904 464.694, 278.926 461.938, 279.798 461.250 C 280.744 460.503, 280.903 460, 280.191 460 C 278.134 460, 278.846 455.853, 281 455.290 C 282.100 455.002, 283 454.369, 283 453.883 C 283 452.295, 280.045 452.955, 278 455 M 316.805 453.739 C 315.805 453.967, 315.338 454.718, 315.667 455.574 C 315.972 456.370, 315.668 459.962, 314.989 463.556 C 314.311 467.150, 313.972 470.305, 314.235 470.568 C 315.155 471.488, 317.870 469.824, 317.409 468.623 C 317.153 467.957, 317.578 464.388, 318.353 460.692 C 319.810 453.741, 319.664 453.086, 316.805 453.739 M 330 453.820 C 329.102 454.227, 328.475 455.906, 328.438 458 C 328.404 459.925, 328.016 463.637, 327.575 466.250 C 326.742 471.183, 328.202 473.089, 329.553 468.834 L 330.240 466.667 331.974 468.965 C 333.395 470.849, 334.049 471.065, 335.604 470.162 C 336.647 469.556, 336.982 469.047, 336.349 469.030 C 335.716 469.014, 334.263 467.416, 333.121 465.480 C 331.494 462.723, 331.177 460.988, 331.658 457.480 C 331.996 455.016, 332.098 453.032, 331.886 453.070 C 331.674 453.109, 330.825 453.446, 330 453.820 M 226.867 461.701 C 224.465 465.990, 222.382 469.741, 222.238 470.036 C 222.094 470.331, 222.891 470.642, 224.010 470.726 C 225.128 470.810, 225.779 470.452, 225.457 469.931 C 224.277 468.021, 226.117 465, 228.460 465 C 230.856 465, 232.302 467.049, 231.458 469.250 C 231.159 470.032, 231.945 470.556, 233.558 470.648 C 235.590 470.765, 235.991 470.448, 235.449 469.148 C 235.071 468.242, 234.210 464.682, 233.535 461.238 C 232.861 457.794, 232.067 454.734, 231.772 454.439 C 231.476 454.143, 229.269 457.411, 226.867 461.701 M 322.991 455.511 C 321.962 456.750, 322.111 457, 323.878 457 C 325.045 457, 326 456.577, 326 456.059 C 326 454.327, 324.240 454.006, 322.991 455.511 M 303 458.500 C 303 459.325, 302.663 460.001, 302.250 460.002 C 301.298 460.006, 301.259 469.590, 302.207 470.539 C 302.596 470.929, 303.708 470.942, 304.679 470.570 C 305.924 470.092, 306.093 469.675, 305.251 469.155 C 303.452 468.043, 304.842 461.020, 306.881 460.921 C 307.916 460.871, 308.050 460.660, 307.250 460.338 C 306.563 460.060, 306 459.196, 306 458.417 C 306 457.637, 305.325 457, 304.500 457 C 303.675 457, 303 457.675, 303 458.500 M 257.607 461.095 C 252.314 465.258, 255.253 473.076, 260.962 470.020 C 263.641 468.587, 263.538 468.174, 260.641 468.728 C 257.757 469.280, 256.044 466.229, 258.767 465.390 C 263.790 463.841, 265.167 461.695, 262.168 460.090 C 260.639 459.272, 259.646 459.491, 257.607 461.095 M 283.390 461.519 C 279.058 465.851, 281.136 471.936, 286.487 470.593 C 289.815 469.757, 289.737 468.136, 286.401 468.774 C 284.284 469.179, 283.867 468.929, 284.156 467.429 C 284.351 466.416, 285.633 465.325, 287.005 465.003 C 290.301 464.230, 290.962 460.485, 287.942 459.695 C 286.469 459.310, 285.018 459.891, 283.390 461.519 M 293.390 461.519 C 289.058 465.851, 291.301 472.610, 296.274 470.210 L 298.500 469.135 296.250 469.068 C 294.475 469.014, 294.003 468.420, 294.015 466.250 C 294.037 462.296, 295.355 460.661, 297.875 461.460 C 299.044 461.831, 300 461.707, 300 461.184 C 300 458.966, 295.726 459.183, 293.390 461.519 M 333.861 461.056 C 331.746 462.898, 331.721 463.006, 333.619 462.092 C 334.784 461.530, 336.021 461.355, 336.369 461.702 C 336.716 462.049, 337 461.583, 337 460.667 C 337 458.533, 336.717 458.568, 333.861 461.056 M 340.607 461.095 C 337.799 463.303, 337.090 467.690, 339.200 469.800 C 340.770 471.370, 342.187 471.315, 344.540 469.595 C 346.338 468.280, 346.285 468.223, 343.731 468.711 C 341.452 469.147, 341 468.883, 341 467.117 C 341 465.745, 341.634 465, 342.800 465 C 344.635 465, 347 463.218, 347 461.835 C 347 461.415, 346.148 460.614, 345.107 460.057 C 343.654 459.280, 342.607 459.521, 340.607 461.095 M 381.750 460.082 C 379.388 461.455, 379.544 464.165, 382.113 466.365 C 383.733 467.752, 383.950 468.445, 383.046 469.337 C 382.146 470.223, 381.547 470.069, 380.529 468.690 C 379.603 467.437, 378.974 467.233, 378.483 468.027 C 377.354 469.855, 379.617 471.313, 382.470 470.597 C 386.085 469.690, 386.682 467.354, 384.022 464.523 C 381.502 461.841, 382.119 459.029, 384.752 461.201 C 386.061 462.282, 386.245 462.258, 385.850 461.063 C 385.221 459.159, 383.887 458.840, 381.750 460.082 M 228.605 461.588 C 227.750 463.816, 227.818 464, 229.500 464 C 230.325 464, 231 463.352, 231 462.559 C 231 460.443, 229.307 459.757, 228.605 461.588 M 243.923 460.250 C 243.881 460.387, 243.730 461.850, 243.588 463.500 C 243.445 465.150, 242.976 468.835, 242.544 471.688 C 241.810 476.539, 241.887 476.842, 243.726 476.361 C 245.118 475.997, 245.571 475.205, 245.274 473.651 C 244.937 471.892, 245.543 471.206, 248.316 470.203 C 253.736 468.243, 256.092 460, 251.231 460 C 250.224 460, 248.860 460.540, 248.200 461.200 C 247.267 462.133, 247 462.133, 247 461.200 C 247 460.229, 244.196 459.363, 243.923 460.250 M 321.882 460.750 C 321.816 461.163, 321.788 461.753, 321.819 462.062 C 321.849 462.370, 321.499 464.285, 321.041 466.317 C 320.082 470.572, 321.348 472.081, 323.810 469.618 C 324.749 468.679, 324.948 468, 324.284 468 C 323.469 468, 323.407 467.067, 324.070 464.757 C 324.581 462.973, 325 461.173, 325 460.757 C 325 459.773, 322.037 459.766, 321.882 460.750 M 348.960 460.250 C 347.762 467.792, 348.985 474.483, 350.604 469.250 C 350.902 468.288, 351.535 466.764, 352.010 465.865 C 353.153 463.701, 352.127 460, 350.383 460 C 349.623 460, 348.982 460.113, 348.960 460.250 M 353.658 461.449 C 353.273 462.453, 353.582 462.714, 354.666 462.298 C 355.882 461.831, 356.094 462.177, 355.615 463.849 C 355.277 465.032, 354.757 466.862, 354.459 467.916 C 353.733 470.489, 355.272 471.264, 357.603 469.500 C 358.646 468.710, 358.985 468.049, 358.355 468.032 C 357.568 468.010, 357.454 466.923, 357.989 464.550 C 358.417 462.653, 358.519 460.853, 358.217 460.550 C 357.123 459.457, 354.201 460.033, 353.658 461.449 M 362.128 461.345 C 361.514 462.085, 360.745 464.023, 360.420 465.651 C 359.680 469.349, 361.884 471.497, 365.487 470.593 C 368.609 469.809, 368.790 468.313, 365.750 468.421 C 362.651 468.530, 362.855 465.741, 366 465.004 C 367.579 464.634, 368.618 463.605, 368.820 462.209 C 369.087 460.358, 368.662 460, 366.192 460 C 364.571 460, 362.742 460.605, 362.128 461.345 M 371.667 460.667 C 370.435 461.899, 370.985 463.985, 373.100 466.100 C 374.697 467.697, 374.920 468.476, 374.033 469.350 C 373.151 470.219, 372.515 470.026, 371.433 468.559 C 370.162 466.837, 370 466.812, 370 468.340 C 370 470.618, 372.337 471.425, 374.922 470.042 C 377.593 468.612, 377.593 465.388, 374.922 463.958 C 373.733 463.322, 373.078 462.238, 373.391 461.423 C 373.952 459.961, 372.854 459.479, 371.667 460.667 M 247.585 463.835 C 246.713 465.521, 246 467.614, 246 468.486 C 246 471.068, 249.654 468.513, 250.440 465.382 C 251.465 461.298, 249.459 460.212, 247.585 463.835 M 258.459 462.067 C 258.096 462.653, 258.040 463.373, 258.333 463.667 C 259.050 464.383, 261 463.121, 261 461.941 C 261 460.663, 259.274 460.748, 258.459 462.067 M 284.638 462.500 C 284.300 463.381, 284.625 464, 285.424 464 C 286.173 464, 287.045 463.325, 287.362 462.500 C 287.700 461.619, 287.375 461, 286.576 461 C 285.827 461, 284.955 461.675, 284.638 462.500 M 341.459 462.067 C 341.096 462.653, 341.040 463.373, 341.333 463.667 C 342.050 464.383, 344 463.121, 344 461.941 C 344 460.663, 342.274 460.748, 341.459 462.067 M 364 462.500 C 364 463.325, 364.402 464, 364.893 464 C 365.384 464, 366.045 463.325, 366.362 462.500 C 366.712 461.586, 366.363 461, 365.469 461 C 364.661 461, 364 461.675, 364 462.500 M 388.074 467.954 C 386.742 468.777, 387.383 471, 388.952 471 C 390.093 471, 391.094 468.176, 390.159 467.598 C 389.744 467.342, 388.806 467.502, 388.074 467.954 M 187.330 491.750 C 249.387 491.892, 350.637 491.892, 412.330 491.750 C 474.024 491.608, 423.250 491.491, 299.500 491.491 C 175.750 491.491, 125.274 491.608, 187.330 491.750" stroke="none" fill="#f7f7f7" fill-rule="evenodd"/></svg>